<svg width="105" height="105" viewBox="0 0 105 105" fill="none" xmlns="http://www.w3.org/2000/svg">
<path d="M104.117 52.5001C104.117 81.1667 80.8096 104.406 52.0585 104.406C23.3074 104.406 0 81.1667 0 52.5001C0 23.8336 23.3074 0.594727 52.0585 0.594727C80.8096 0.594727 104.117 23.8336 104.117 52.5001ZM26.0293 52.5001C26.0293 66.8334 37.683 78.4528 52.0585 78.4528C66.4341 78.4528 78.0878 66.8334 78.0878 52.5001C78.0878 38.1669 66.4341 26.5474 52.0585 26.5474C37.683 26.5474 26.0293 38.1669 26.0293 52.5001Z" fill="white" fill-opacity="0.2"/>
<path d="M52.0586 0.594727C62.3548 0.594727 72.4198 3.63893 80.9808 9.34237C89.5417 15.0458 96.2142 23.1523 100.154 32.6368C104.095 42.1213 105.126 52.5577 103.117 62.6264C101.108 72.695 96.15 81.9437 88.8695 89.2028L70.4641 70.8515C74.1043 67.2219 76.5834 62.5976 77.5877 57.5633C78.5921 52.5289 78.0766 47.3107 76.1065 42.5685C74.1364 37.8262 70.8002 33.773 66.5197 30.9212C62.2392 28.0695 57.2067 26.5474 52.0586 26.5474V0.594727Z" fill="white"/>
</svg>
