<svg aria-hidden="true" xmlns="http://www.w3.org/2000/svg" xmlns:xlink="http://www.w3.org/1999/xlink"><symbol viewBox="0 0 24 24" id="action" xmlns="http://www.w3.org/2000/svg">
<g clip-path="url(#aaclip0_127_1146)">
<path d="M16.5411 15.8674C16.2253 15.8674 15.9518 16.0867 15.8833 16.395L15.6638 17.3827H9.3362L9.11671 16.395C9.0482 16.0867 8.77472 15.8674 8.45892 15.8674H1V9.13275H7.91837L8.13539 10.1094C8.13557 10.1102 8.13575 10.111 8.13593 10.1118L8.81142 13.1514C8.87993 13.4597 9.15337 13.6791 9.46921 13.6791H15.5309C15.8467 13.6791 16.1202 13.4597 16.1887 13.1514L16.8642 10.1118C16.8643 10.111 16.8645 10.1102 16.8647 10.1094L17.0817 9.13275H24V15.8674H16.5411ZM15.3643 18.7304L14.9903 20.4136H10.0097L9.63569 18.7304H15.3643ZM9.63569 10.6482H15.3644L14.9903 12.3314H10.0097L9.63569 10.6482ZM15.3643 2.56598L14.9903 4.24916H10.0097L9.63569 2.56598H15.3643ZM7.91837 1.05054L8.13539 2.02718C8.13557 2.02799 8.13575 2.02876 8.13593 2.02956L8.81142 5.06921C8.87993 5.3775 9.15337 5.59686 9.46921 5.59686H15.5309C15.8467 5.59686 16.1202 5.3775 16.1887 5.06921L16.8642 2.02956C16.8643 2.02876 16.8645 2.02799 16.8647 2.02718L17.0817 1.05054H23.3262C23.6983 1.05054 24 1.35223 24 1.72437V7.78509H16.5411C16.2252 7.78509 15.9518 8.00445 15.8833 8.31275L15.6638 9.30053H9.3362L9.11671 8.31275C9.0482 8.00445 8.77476 7.78509 8.45892 7.78509H1V1.72437C1 1.35223 1.3017 1.05054 1.67383 1.05054H7.91837ZM23.3262 23.9496H1.67383C1.3017 23.9496 1 23.6479 1 23.2757V17.215H7.91837L8.13544 18.1917C8.13557 18.1924 8.13575 18.193 8.13588 18.1938L8.81142 21.2336C8.87993 21.5419 9.15337 21.7612 9.46921 21.7612H15.5309C15.8467 21.7612 16.1202 21.5419 16.1887 21.2336L16.8642 18.1938C16.8643 18.1931 16.8645 18.1924 16.8647 18.1917L17.0817 17.215H24V23.2757C24 23.6479 23.6983 23.9496 23.3262 23.9496Z"/>
</g>
<defs>
<clipPath id="aaclip0_127_1146">
<rect width="23" height="23" transform="translate(1 1)"/>
</clipPath>
</defs>
</symbol><symbol viewBox="0 0 28 28" id="agency" xmlns="http://www.w3.org/2000/svg">
<g clip-path="url(#abclip0_19_3123)">
<path d="M27.5489 18.9929C27.2251 18.4198 26.6695 18.0085 26.0264 17.8685C25.707 17.7985 25.3745 17.7941 25.0595 17.8598V9.66452L25.3771 9.92264C25.4987 10.022 25.6449 10.0696 25.7906 10.0696C25.8085 10.0696 25.8264 10.0653 25.8444 10.064C25.8562 10.0644 25.8671 10.0696 25.8789 10.0696C26.0697 10.0696 26.2587 9.98696 26.3886 9.82727C26.617 9.54596 26.5746 9.13296 26.2932 8.90415L24.8184 7.70452C24.818 7.70408 24.8171 7.70365 24.8167 7.70277L15.7705 0.345332C15.6379 0.237707 15.4739 0.194832 15.3124 0.20577C15.151 0.194832 14.9869 0.23727 14.8539 0.345332L4.3303 8.90458C4.04899 9.13296 4.00655 9.5464 4.23537 9.82771C4.37887 10.0045 4.59543 10.0863 4.80631 10.0666C4.96074 10.0727 5.11781 10.0276 5.24687 9.92264L5.56449 9.66452V16.9629C4.12512 17.606 3.17137 18.4373 3.08824 18.516L0.546368 19.8154C0.388868 19.8985 0.270743 20.0385 0.218243 20.2048C0.165743 20.371 0.183243 20.5548 0.266368 20.7123L3.70949 27.1566C3.79262 27.3185 3.94137 27.4366 4.11637 27.4804C4.17324 27.4979 4.23012 27.5066 4.28699 27.5066C4.40949 27.5066 4.52762 27.4716 4.63262 27.406L7.20074 25.8091C7.20949 25.8048 7.21387 25.796 7.22262 25.7916C7.23137 25.7873 7.24449 25.7829 7.25324 25.7785C7.46762 25.6604 7.72574 25.6604 7.94449 25.7741C11.0551 27.4279 12.967 27.7954 14.0564 27.7954C14.3145 27.7954 14.5245 27.7735 14.6951 27.7473C15.3295 27.7123 20.947 27.2748 26.7526 21.8716L27.2251 21.3991C27.8639 20.7604 27.9951 19.7716 27.5489 18.9929V18.9929ZM6.87699 8.59702L15.312 1.73614L23.747 8.59658V18.4806L22.3907 19.2418C21.4282 19.78 20.562 20.3137 19.7657 20.865C19.6345 20.9525 19.512 21.0443 19.3851 21.1318C19.4289 21.0443 19.4639 20.9525 19.4857 20.865C19.5601 20.6068 19.5645 20.3531 19.4857 20.1081C19.4026 19.8281 19.197 19.5131 18.742 19.2681V13.48C18.742 12.5743 18.3876 11.7125 17.7401 11.0518C17.0314 10.3475 16.0951 9.99308 15.0932 10.0543C13.2951 10.1637 11.882 11.7212 11.882 13.5937V16.9231C10.0882 16.0218 8.33824 16.0831 6.87699 16.4856V8.59702ZM17.4295 18.9185C17.3639 18.9098 17.2982 18.9054 17.2326 18.901C13.9645 18.6823 13.352 18.0741 13.2907 18.0085C13.2601 17.9735 13.2295 17.9385 13.1945 17.9035V13.5941C13.1945 12.4304 14.0826 11.4329 15.1764 11.3673C15.7976 11.3323 16.3751 11.5466 16.8082 11.9754C17.2107 12.3866 17.4295 12.9204 17.4295 13.4804V18.9185ZM4.53637 25.9229L1.73637 20.6816L3.20199 19.9291L5.98012 25.0216L4.53637 25.9229ZM26.2845 20.4848L25.8382 20.9266C25.4795 21.2591 25.1207 21.5741 24.762 21.8716L24.7576 21.876C24.6964 21.9241 24.6351 21.9766 24.5739 22.0248C19.4026 26.2116 14.6514 26.4348 14.5989 26.4348C14.5682 26.4391 14.5332 26.4435 14.4982 26.4479C13.947 26.5529 12.2582 26.5835 8.56137 24.6191C8.25949 24.4573 7.92699 24.3741 7.59887 24.3741C7.45887 24.3741 7.32324 24.3916 7.18324 24.4179L5.73949 21.7273C5.70449 21.6704 5.66949 21.6135 5.64324 21.5523L4.36574 19.1766C4.64137 18.9754 5.05262 18.6998 5.56449 18.4329C5.94949 18.2316 6.39137 18.0304 6.87699 17.8773C8.22012 17.431 9.88262 17.2998 11.5364 18.2185C11.6501 18.2841 11.7682 18.3629 11.882 18.4591C12.022 18.5729 12.162 18.7085 12.302 18.8704C12.5032 19.1023 12.7964 19.3035 13.1945 19.4741C14.0432 19.8504 15.3514 20.091 17.1451 20.2135C17.2501 20.2223 17.342 20.231 17.4295 20.2398C17.9851 20.3098 18.2039 20.4498 18.2301 20.4804C18.2301 20.511 18.1776 20.6598 17.9589 20.8654C17.9107 20.9135 17.8582 20.9616 17.7926 21.0141C17.692 21.0973 17.5695 21.1848 17.4295 21.2635C16.5282 21.8104 14.8876 22.2829 13.0501 21.9285C12.7307 21.8673 12.407 21.7798 12.0789 21.666C12.0176 21.6441 11.9564 21.6354 11.8951 21.6354C11.6501 21.6179 11.4139 21.7448 11.287 21.9679C11.2476 22.0335 11.2257 22.1079 11.2126 22.1779C11.1776 22.4054 11.2607 22.646 11.4489 22.7991C11.5539 22.8691 11.6632 22.9173 11.777 22.961C12.2057 23.1185 12.6476 23.2279 13.1026 23.2673C17.8276 23.6785 20.0414 22.2523 20.0414 22.2523L20.1595 22.1779L22.2639 20.8654L23.0339 20.3841L23.747 19.9816L24.8714 19.3516C24.8932 19.3429 24.9151 19.3298 24.9326 19.3166C24.972 19.286 25.0157 19.2598 25.0595 19.2379C25.2695 19.1285 25.5057 19.0979 25.742 19.1504C26.022 19.2116 26.2539 19.3779 26.3982 19.6229C26.5514 19.881 26.4945 20.2704 26.2845 20.4848V20.4848Z" stroke-width="0.3"/>
</g>
<defs>
<clipPath id="abclip0_19_3123">
<rect width="28" height="28"/>
</clipPath>
</defs>
</symbol><symbol viewBox="0 0 50 50" id="arrows" xmlns="http://www.w3.org/2000/svg">
<path d="M37.4482 0.0517578H12.7178C9.4383 0.0517578 6.29316 1.35452 3.97423 3.67345C1.6553 5.99237 0.352539 9.13752 0.352539 12.417L0.352539 37.1474C0.352539 40.4269 1.6553 43.572 3.97423 45.8909C6.29316 48.2099 9.4383 49.5126 12.7178 49.5126H37.4482C40.7277 49.5126 43.8728 48.2099 46.1917 45.8909C48.5107 43.572 49.8134 40.4269 49.8134 37.1474V12.417C49.8134 9.13752 48.5107 5.99237 46.1917 3.67345C43.8728 1.35452 40.7277 0.0517578 37.4482 0.0517578V0.0517578ZM47.4949 37.1474C47.4919 39.811 46.4324 42.3647 44.5489 44.2481C42.6655 46.1316 40.1118 47.1911 37.4482 47.1942H12.7178C10.0541 47.1911 7.50049 46.1316 5.61703 44.2481C3.73356 42.3647 2.67409 39.811 2.67102 37.1474V12.417C2.67409 9.75336 3.73356 7.19971 5.61703 5.31625C7.50049 3.43278 10.0541 2.3733 12.7178 2.37024H37.4482C40.1118 2.3733 42.6655 3.43278 44.5489 5.31625C46.4324 7.19971 47.4919 9.75336 47.4949 12.417V37.1474Z"/>
<path d="M35.5158 33.5751L16.2895 14.3488H23.8949V12.0303H12.3311V23.5941H14.6495V15.9879L33.8767 35.2151H26.2705V37.5335H37.8343V25.9697H35.5158V33.5751Z"/>
</symbol><symbol viewBox="0 0 31 32" id="attach" xmlns="http://www.w3.org/2000/svg">
<path fill-rule="evenodd" clip-rule="evenodd" d="M18.0715 0.752808C21.6125 0.752808 24.4832 3.62346 24.4832 7.16457V22.5528C24.4832 27.5104 20.4643 31.5293 15.5067 31.5293C10.5492 31.5293 6.53027 27.5104 6.53027 22.5528V12.294H9.09498V22.5528C9.09498 26.0939 11.9656 28.9646 15.5067 28.9646C19.0478 28.9646 21.9185 26.0939 21.9185 22.5528V7.16457C21.9185 5.03991 20.1962 3.31751 18.0715 3.31751C15.9467 3.31751 14.2244 5.03991 14.2244 7.16457V22.5528C14.2244 23.2611 14.7985 23.8352 15.5067 23.8352C16.215 23.8352 16.7891 23.2611 16.7891 22.5528V8.44693H19.3538V22.5528C19.3538 24.6775 17.6315 26.3999 15.5067 26.3999C13.382 26.3999 11.6597 24.6775 11.6597 22.5528V7.16457C11.6597 3.62346 14.5304 0.752808 18.0715 0.752808Z"/>
</symbol><symbol viewBox="0 0 32 32" id="bell" xmlns="http://www.w3.org/2000/svg">
<path d="M26.2862 18.6717V11.4283C26.2862 8.70035 25.2025 6.08414 23.2736 4.15519C21.3446 2.22625 18.7284 1.14258 16.0005 1.14258C13.2725 1.14258 10.6563 2.22625 8.72735 4.15519C6.79841 6.08414 5.71474 8.70035 5.71474 11.4283V18.6717C4.89436 19.061 4.23087 19.7179 3.83335 20.5344C3.43582 21.3508 3.32792 22.2782 3.52738 23.1641C3.72685 24.05 4.22181 24.8416 4.93088 25.4089C5.63996 25.9762 6.52095 26.2853 7.42902 26.2854H10.4005C10.6628 27.5772 11.3636 28.7386 12.3842 29.5727C13.4047 30.4069 14.6823 30.8626 16.0005 30.8626C17.3186 30.8626 18.5962 30.4069 19.6167 29.5727C20.6373 28.7386 21.3381 27.5772 21.6005 26.2854H24.5719C25.4799 26.2853 26.3609 25.9762 27.07 25.4089C27.7791 24.8416 28.2741 24.05 28.4735 23.1641C28.673 22.2782 28.5651 21.3508 28.1676 20.5344C27.77 19.7179 27.1065 19.061 26.2862 18.6717ZM16.0005 28.5712C15.2939 28.5682 14.6054 28.3471 14.0294 27.9379C13.4533 27.5288 13.0177 26.9516 12.7822 26.2854H19.2187C18.9832 26.9516 18.5476 27.5288 17.9715 27.9379C17.3955 28.3471 16.707 28.5682 16.0005 28.5712ZM24.5719 23.9997H7.42902C7.0039 24.0001 6.59378 23.8426 6.27828 23.5577C5.96278 23.2727 5.76442 22.8807 5.72169 22.4577C5.67897 22.0347 5.79493 21.611 6.04707 21.2687C6.29921 20.9264 6.66954 20.69 7.08617 20.6054C7.34431 20.5527 7.57631 20.4125 7.74292 20.2084C7.90953 20.0043 8.00051 19.7489 8.00045 19.4854V11.4283C8.00045 9.30656 8.84331 7.27173 10.3436 5.77144C11.8439 4.27115 13.8787 3.42829 16.0005 3.42829C18.1222 3.42829 20.157 4.27115 21.6573 5.77144C23.1576 7.27173 24.0005 9.30656 24.0005 11.4283V19.4854C24.0004 19.7489 24.0914 20.0043 24.258 20.2084C24.4246 20.4125 24.6566 20.5527 24.9147 20.6054C25.3314 20.69 25.7017 20.9264 25.9538 21.2687C26.206 21.611 26.3219 22.0347 26.2792 22.4577C26.2365 22.8807 26.0381 23.2727 25.7226 23.5577C25.4071 23.8426 24.997 24.0001 24.5719 23.9997Z"/>
</symbol><symbol viewBox="0 0 28 28" id="client" xmlns="http://www.w3.org/2000/svg">
<path d="M14 13C15.1867 13 16.3467 12.6481 17.3334 11.9888C18.3201 11.3295 19.0891 10.3925 19.5433 9.2961C19.9974 8.19975 20.1162 6.99335 19.8847 5.82946C19.6532 4.66558 19.0817 3.59648 18.2426 2.75736C17.4035 1.91825 16.3344 1.3468 15.1705 1.11529C14.0066 0.88378 12.8003 1.0026 11.7039 1.45673C10.6075 1.91085 9.67047 2.67989 9.01118 3.66658C8.35189 4.65328 8 5.81332 8 7C8.00159 8.59082 8.63424 10.116 9.75911 11.2409C10.884 12.3658 12.4092 12.9984 14 13ZM14 3C14.7911 3 15.5645 3.2346 16.2223 3.67412C16.8801 4.11365 17.3928 4.73837 17.6955 5.46927C17.9983 6.20017 18.0775 7.00444 17.9231 7.78036C17.7688 8.55629 17.3878 9.26902 16.8284 9.82843C16.269 10.3878 15.5563 10.7688 14.7804 10.9231C14.0044 11.0775 13.2002 10.9983 12.4693 10.6955C11.7384 10.3928 11.1136 9.88008 10.6741 9.22228C10.2346 8.56449 10 7.79113 10 7C10 5.93914 10.4214 4.92172 11.1716 4.17158C11.9217 3.42143 12.9391 3 14 3Z"/>
<path d="M24.9762 22.1421C24.0345 20.0168 22.4961 18.2106 20.5477 16.9427C18.5993 15.6749 16.3247 15 14.0002 15C11.6756 15 9.40099 15.6749 7.45259 16.9427C5.50419 18.2106 3.96578 20.0168 3.02416 22.1421C2.78831 22.6702 2.6887 23.249 2.73448 23.8255C2.78025 24.4021 2.96994 24.9579 3.28616 25.4421C3.59717 25.9215 4.02336 26.3152 4.52576 26.5874C5.02817 26.8595 5.59077 27.0014 6.16216 27.0001H21.8382C22.4097 27.0012 22.9725 26.859 23.4749 26.5865C23.9773 26.314 24.4034 25.9198 24.7142 25.4401C25.03 24.9561 25.2195 24.4007 25.2653 23.8245C25.3111 23.2484 25.2117 22.6699 24.9762 22.1421ZM23.0382 24.3491C22.9098 24.5506 22.7323 24.716 22.5224 24.8299C22.3125 24.9438 22.077 25.0024 21.8382 25.0001H6.16216C5.92333 25.0024 5.68785 24.9438 5.47791 24.8299C5.26797 24.716 5.09048 24.5506 4.96216 24.3491C4.82655 24.1443 4.74538 23.9082 4.72631 23.6633C4.70724 23.4183 4.75089 23.1725 4.85316 22.9491C5.63641 21.1764 6.91792 19.6694 8.54183 18.6115C10.1657 17.5537 12.0621 16.9905 14.0002 16.9905C15.9382 16.9905 17.8346 17.5537 19.4585 18.6115C21.0824 19.6694 22.3639 21.1764 23.1472 22.9491C23.2494 23.1725 23.2931 23.4183 23.274 23.6633C23.2549 23.9082 23.1738 24.1443 23.0382 24.3491Z"/>
</symbol><symbol viewBox="0 0 24 24" id="close" xmlns="http://www.w3.org/2000/svg">
<path d="M1.17209 24.0002C0.940287 24.0002 0.713675 23.9315 0.520921 23.8027C0.328167 23.674 0.177931 23.4909 0.0892164 23.2768C0.000501992 23.0626 -0.0227054 22.8269 0.0225297 22.5996C0.0677649 22.3722 0.17941 22.1634 0.343344 21.9995L21.9996 0.34328C22.2194 0.123481 22.5175 0 22.8283 0C23.1392 0 23.4373 0.123481 23.6571 0.34328C23.8769 0.563078 24.0004 0.861188 24.0004 1.17203C24.0004 1.48287 23.8769 1.78098 23.6571 2.00078L2.00084 23.657C1.89211 23.766 1.76292 23.8524 1.6207 23.9113C1.47848 23.9702 1.32602 24.0004 1.17209 24.0002Z"/>
<path d="M22.8288 24.0002C22.6748 24.0004 22.5224 23.9702 22.3802 23.9113C22.2379 23.8524 22.1088 23.766 22 23.657L0.343768 2.00078C0.12397 1.78098 0.000488281 1.48287 0.000488281 1.17203C0.000488281 0.861188 0.12397 0.563078 0.343768 0.34328C0.563566 0.123481 0.861676 0 1.17252 0C1.48336 0 1.78147 0.123481 2.00127 0.34328L23.6575 21.9995C23.8215 22.1634 23.9331 22.3722 23.9783 22.5996C24.0236 22.8269 24.0004 23.0626 23.9116 23.2768C23.8229 23.4909 23.6727 23.674 23.4799 23.8027C23.2872 23.9315 23.0606 24.0002 22.8288 24.0002Z"/>
</symbol><symbol viewBox="0 0 35 35" id="crown" xmlns="http://www.w3.org/2000/svg">
<path d="M32.4768 6.73902C31.0786 6.73902 29.9461 7.9721 29.9461 9.48897C29.9461 10.4757 30.4238 11.3348 31.1431 11.8229C29.6232 14.1043 27.4785 16.7536 25.2678 17.5211C22.3586 18.5318 19.6462 12.32 18.311 8.62839C19.3007 8.25589 20.0216 7.23914 20.0216 6.03315C20.0216 4.51628 18.8907 3.28467 17.497 3.28467C16.1062 3.28467 14.9738 4.51621 14.9738 6.03315C14.9738 7.23914 15.6932 8.25443 16.6845 8.62839C15.3523 12.32 12.6429 18.5318 9.72925 17.5211C7.52148 16.7536 5.37227 14.1043 3.8554 11.8229C4.57178 11.3348 5.05088 10.4772 5.05088 9.48897C5.05088 7.9721 3.91695 6.73902 2.52318 6.73902C1.1324 6.73902 0 7.9721 0 9.48897C0 11.0104 1.1324 12.2419 2.52318 12.2419C2.55172 12.2419 2.57122 12.2344 2.5983 12.2314L6.00761 28.0688H28.991L32.4018 12.2314C32.4258 12.2329 32.4498 12.2419 32.4784 12.2419C33.8676 12.2419 35 11.0104 35 9.48897C34.9985 7.9721 33.8661 6.73902 32.4768 6.73902Z"/>
<path d="M28.8735 28.626H6.12292V31.7154H28.8735V28.626Z"/>
</symbol><symbol viewBox="0 0 20 21" id="delete" xmlns="http://www.w3.org/2000/svg">
<g clip-path="url(#aiclip0_101_10395)">
<path d="M3.33398 17.9417C3.33398 19.1695 4.32841 20.164 5.55622 20.164H14.4451C15.6729 20.164 16.6673 19.1695 16.6673 17.9417V4.6084H3.33398V17.9417Z"/>
<path d="M13.8893 1.27516L12.7782 0.164062H7.22266L6.11151 1.27516H2.22266V3.4974H17.7782V1.27516H13.8893Z"/>
</g>
<defs>
<clipPath id="aiclip0_101_10395">
<rect width="20" height="20" transform="translate(0 0.164062)"/>
</clipPath>
</defs>
</symbol><symbol viewBox="0 0 24 24" id="down" xmlns="http://www.w3.org/2000/svg">
<path d="M6 9L12 15L18 9"/>
</symbol><symbol viewBox="0 0 22 21" id="download" xmlns="http://www.w3.org/2000/svg">
<path fill-rule="evenodd" clip-rule="evenodd" d="M10.8591 0.435059C10.1508 0.435059 9.57671 1.00919 9.57671 1.71741V10.8959L5.41865 6.73784L3.60512 8.55133L10.8592 15.8055L18.1133 8.55133L16.2998 6.73784L12.1414 10.8962V1.71741C12.1414 1.00919 11.5673 0.435059 10.8591 0.435059ZM3.16432 13.2586H0.599609V18.388C0.599609 19.8045 1.74787 20.9527 3.16432 20.9527H18.5526C19.969 20.9527 21.1173 19.8045 21.1173 18.388V13.2586H18.5526V18.388H3.16432V13.2586Z"/>
</symbol><symbol viewBox="0 0 26 27" id="email" xmlns="http://www.w3.org/2000/svg">
<path d="M16.8472 14.2432L14.6697 16.4281C13.7866 17.3142 12.2329 17.3333 11.3308 16.4281L9.15315 14.2432L1.33203 22.0897C1.62316 22.2243 1.94415 22.3046 2.2854 22.3046H23.7151C24.0563 22.3046 24.3772 22.2244 24.6682 22.0897L16.8472 14.2432Z"/>
<path d="M23.715 4.02344H2.2853C1.94405 4.02344 1.62306 4.10377 1.33203 4.23839L9.68946 12.6235C9.69002 12.6241 9.69068 12.6242 9.69124 12.6248C9.69179 12.6253 9.6919 12.6261 9.6919 12.6261L12.4094 15.3525C12.698 15.6412 13.3024 15.6412 13.591 15.3525L16.3079 12.6265C16.3079 12.6265 16.3086 12.6253 16.3092 12.6248C16.3092 12.6248 16.3104 12.6241 16.3109 12.6235L24.6682 4.23834C24.3771 4.10367 24.0562 4.02344 23.715 4.02344Z"/>
<path d="M0.243039 5.30371C0.0924219 5.6083 0 5.9464 0 6.30857V20.0195C0 20.3817 0.0923203 20.7198 0.242988 21.0244L8.07767 13.1643L0.243039 5.30371Z"/>
<path d="M25.7574 5.30371L17.9229 13.1644L25.7574 21.0246C25.908 20.72 26.0005 20.3819 26.0005 20.0196V6.30867C26.0005 5.9464 25.908 5.6083 25.7574 5.30371Z"/>
</symbol><symbol viewBox="0 0 7 12" id="fb" xmlns="http://www.w3.org/2000/svg">
<path d="M5.99414 6.25293L6.29492 4.27637H4.38281V2.9873C4.38281 2.42871 4.64062 1.91309 5.5 1.91309H6.38086V0.21582C6.38086 0.21582 5.58594 0.0654297 4.83398 0.0654297C3.26562 0.0654297 2.23438 1.03223 2.23438 2.75098V4.27637H0.472656V6.25293H2.23438V11.0654H4.38281V6.25293H5.99414Z"/>
</symbol><symbol viewBox="0 0 58 59" id="geo" xmlns="http://www.w3.org/2000/svg">
<g opacity="0.9">
<rect y="0.374023" width="57.7044" height="57.7044" rx="28.8522"/>
<path d="M29.0489 15.4805C22.109 15.4805 16.4629 20.7458 16.4629 27.2178C16.4629 29.4044 17.1124 31.5384 18.3416 33.3898L28.3325 48.4042C28.5239 48.6918 28.861 48.8666 29.2237 48.8666C29.2264 48.8666 29.2292 48.8666 29.232 48.8666C29.5977 48.8639 29.9356 48.6837 30.1235 48.3911L39.8597 33.2312C41.0211 31.4189 41.6349 29.3395 41.6349 27.2178C41.6349 20.7458 35.9889 15.4805 29.0489 15.4805ZM38.0595 32.2269L29.2078 46.0096L20.1245 32.3591C19.1013 30.8181 18.5466 29.0403 18.5466 27.2178C18.5466 21.8245 23.2656 17.4236 29.0489 17.4236C34.8322 17.4236 39.5443 21.8245 39.5443 27.2178C39.5443 28.9862 39.0261 30.7186 38.0595 32.2269Z"/>
<path d="M29.0498 21.3496C25.5799 21.3496 22.7568 23.9823 22.7568 27.2183C22.7568 30.4336 25.5339 33.0869 29.0498 33.0869C32.6091 33.0869 35.3429 30.3982 35.3429 27.2183C35.3429 23.9823 32.5198 21.3496 29.0498 21.3496ZM29.0498 31.1437C26.7244 31.1437 24.8405 29.381 24.8405 27.2183C24.8405 25.0609 26.7365 23.2928 29.0498 23.2928C31.3632 23.2928 33.2522 25.0609 33.2522 27.2183C33.2522 29.3494 31.4121 31.1437 29.0498 31.1437Z"/>
</g>
</symbol><symbol viewBox="0 0 28 28" id="hear" xmlns="http://www.w3.org/2000/svg">
<path d="M25.8491 18.6732L25.8491 18.6732C25.4261 18.9433 24.9416 18.9179 24.6334 18.8644L24.2188 18.7926V18.3718V12.9528V12.5419L24.6219 12.4623C24.9292 12.4016 25.4257 12.3613 25.8579 12.6329L25.8491 18.6732ZM25.8491 18.6732C26.2462 18.4197 26.4899 17.9736 26.6373 17.48C26.7878 16.9758 26.8594 16.3511 26.8594 15.6406C26.8594 14.9343 26.7889 14.3141 26.6405 13.8144M25.8491 18.6732L26.6405 13.8144M26.6405 13.8144C26.4955 13.3262 26.2545 12.8822 25.8579 12.6329L26.6405 13.8144ZM24.2188 11.2954V11.8471L24.7677 11.793C25.242 11.7463 25.7459 11.8105 26.186 12.0825C26.99 12.5794 27.5 13.6895 27.5 15.6406C27.5 17.5941 26.9894 18.7141 26.1804 19.2217L26.1803 19.2217C25.7767 19.4749 25.2915 19.5725 24.7616 19.527L24.2188 19.4803V20.0251V20.0289V20.0327V20.0365V20.0403V20.0441V20.0479V20.0517V20.0555V20.0593V20.0631V20.0669V20.0706V20.0744V20.0782V20.082V20.0858V20.0895V20.0933V20.0971V20.1009V20.1046V20.1084V20.1122V20.116V20.1197V20.1235V20.1273V20.131V20.1348V20.1386V20.1423V20.1461V20.1499V20.1536V20.1574V20.1611V20.1649V20.1687V20.1724V20.1762V20.1799V20.1837V20.1875V20.1912V20.195V20.1987V20.2025V20.2062V20.21V20.2137V20.2175V20.2212V20.225V20.2288V20.2325V20.2363V20.24V20.2438V20.2475V20.2513V20.255V20.2588V20.2625V20.2663V20.27V20.2738V20.2775V20.2813V20.285V20.2888V20.2925V20.2963V20.3V20.3038V20.3075V20.3113V20.315V20.3188V20.3225V20.3263V20.33V20.3338V20.3375V20.3413V20.345V20.3488V20.3525V20.3563V20.3601V20.3638V20.3676V20.3713V20.3751V20.3788V20.3826V20.3863V20.3901V20.3939V20.3976V20.4014V20.4051V20.4089V20.4127V20.4164V20.4202V20.424V20.4277V20.4315V20.4353V20.439V20.4428V20.4466V20.4503V20.4541V20.4579V20.4617V20.4654V20.4692V20.473V20.4768V20.4806V20.4843V20.4881V20.4919V20.4957V20.4995V20.5033V20.507V20.5108V20.5146V20.5184V20.5222V20.526V20.5298V20.5336V20.5374V20.5412V20.545V20.5488V20.5526V20.5564V20.5602V20.564V20.5678V20.5716V20.5755V20.5793V20.5831V20.5869V20.5907V20.5946V20.5984V20.6022V20.606V20.6099V20.6137V20.6175V20.6214V20.6252V20.629V20.6329V20.6367V20.6406V20.6444V20.6483V20.6521V20.656V20.6598V20.6637V20.6676V20.6714V20.6753V20.6791V20.683V20.6869V20.6908V20.6946V20.6985V20.7024V20.7063V20.7102V20.7141V20.7179V20.7218V20.7257V20.7296V20.7335V20.7374V20.7413V20.7452V20.7492V20.7531V20.757V20.7609V20.7648V20.7687V20.7727V20.7766V20.7805V20.7845V20.7884V20.7923V20.7963V20.8002V20.8042V20.8081V20.8121V20.816V20.82V20.824V20.8279V20.8319V20.8359V20.8399V20.8438V20.8478V20.8518V20.8558V20.8598V20.8638V20.8678V20.8718V20.8758V20.8798V20.8838V20.8878V20.8918V20.8959V20.8999V20.9039V20.908V20.912V20.916V20.9201V20.9241V20.9282V20.9322V20.9363V20.9403V20.9444V20.9485V20.9525V20.9566V20.9607V20.9648V20.9689V20.973V20.977V20.9811V20.9852V20.9894V20.9935V20.9976V21.0017V21.0058V21.0099V21.0141V21.0182V21.0223V21.0265V21.0306V21.0348V21.0389V21.0431V21.0473V21.0514V21.0556V21.0598V21.0639V21.0681V21.0723V21.0765V21.0807V21.0849V21.0891V21.0933V21.0975V21.1018V21.106V21.1102V21.1144V21.1187V21.1229V21.1272V21.1314V21.1357V21.1399V21.1442V21.1485V21.1527V21.157V21.1613V21.1656V21.1699V21.1742V21.1785V21.1828V21.1871V21.1914V21.1957V21.2001V21.2044V21.2087V21.2131V21.2174V21.2218V21.2261V21.2305V21.2349V21.2392V21.2436V21.248V21.2524V21.2568V21.2612V21.2656V21.27V21.2744V21.2788V21.2833V21.2877V21.2921V21.2966V21.301V21.3055V21.3099V21.3144V21.3189V21.3233V21.3278V21.3323V21.3368V21.3413V21.3458V21.3503V21.3548V21.3593V21.3639V21.3684V21.3729V21.3775V21.382V21.3866V21.3911V21.3957V21.4003V21.4048V21.4094V21.414V21.4186V21.4232V21.4278V21.4324V21.4371V21.4417V21.4463V21.451V21.4556V21.4603V21.4649V21.4696V21.4742V21.4789V21.4836V21.4883V21.493V21.4977V21.5024V21.5071V21.5118V21.5166V21.5213V21.526V21.5308V21.5355V21.5403V21.5451V21.5498V21.5546V21.5594V21.5642V21.569V21.5738V21.5786V21.5834V21.5883V21.5931V21.5979V21.6028V21.6076V21.6125V21.6174V21.6222V21.6271V21.632V21.6369V21.6418V21.6467V21.6516V21.6565V21.6615V21.6664V21.6714V21.6763V21.6813V21.6862V21.6912V21.6962V21.7012V21.7062V21.7112V21.7162V21.7212V21.7262V21.7313V21.7363V21.7413V21.7464V21.7515V21.7565V21.7616V21.7667V21.7718V21.7769V21.782V21.7871V21.7922V21.7974V21.8025V21.8076V21.8128V21.818V21.8231V21.8283V21.8335V21.8387V21.8439V21.8491V21.8543V21.8595V21.8647V21.87V21.8752V21.8805V21.8858V21.891V21.8963V21.9016V21.9069V21.9122V21.9175V21.9228V21.9282V21.9335V21.9388V21.9442V21.9496V21.9549V21.9603V21.9657V21.9711V21.9765V21.9819V21.9873V21.9927V21.9982V22.0036V22.0091V22.0145V22.02V22.0255V22.031V22.0365V22.042V22.0475V22.053V22.0586V22.0641V22.0696V22.0752V22.0808V22.0863V22.0919V22.0975V22.1031V22.1087V22.1144V22.12V22.1256V22.1313V22.1369V22.1426V22.1483V22.1539V22.1596V22.1653V22.171V22.1768V22.1825V22.1882V22.194V22.1997V22.2055V22.2113V22.2171V22.2229V22.2287V22.2345V22.2403V22.2461V22.252V22.2578C24.2188 24.2433 22.6026 25.8594 20.6172 25.8594H17.9605H17.6073L17.4892 26.1922C17.2189 26.9544 16.491 27.5 15.6406 27.5H14C12.9192 27.5 12.0391 26.6199 12.0391 25.5391C12.0391 24.4582 12.9192 23.5781 14 23.5781H15.6406C16.491 23.5781 17.2189 24.1237 17.4892 24.8859L17.6073 25.2188H17.9605H20.6172C22.2503 25.2188 23.5781 23.8909 23.5781 22.2578V21.4375V20.9375H23.0781H20.6172C20.4403 20.9375 20.2969 20.7941 20.2969 20.6172V10.7188C20.2969 10.5419 20.4403 10.3984 20.6172 10.3984H23.0407H23.5877L23.5387 9.85362C23.0996 4.97581 18.9905 1.14062 14 1.14062C9.00946 1.14062 4.90037 4.97581 4.46135 9.85362L4.41231 10.3984H4.95934H7.38281C7.5597 10.3984 7.70312 10.5419 7.70312 10.7188V20.6172C7.70312 20.7941 7.5597 20.9375 7.38281 20.9375H4.10156C3.92467 20.9375 3.78125 20.7941 3.78125 20.6172V20.0252V19.4804L3.23842 19.527C2.70855 19.5726 2.22335 19.475 1.81967 19.2217L1.55803 19.6388L1.81967 19.2217C1.0106 18.7142 0.5 17.5941 0.5 15.6406C0.5 13.6895 1.01001 12.5794 1.81397 12.0825C2.25404 11.8105 2.75805 11.7463 3.23221 11.793L3.78125 11.8471V11.2954V10.7188C3.78125 5.10032 8.38091 0.5 14 0.5C19.6184 0.5 24.2188 5.09966 24.2188 10.7188V11.2954ZM3.36699 18.8666L3.78125 18.7945V18.374V12.9528V12.5418L3.37808 12.4623C3.07079 12.4016 2.5742 12.3612 2.14211 12.6328C1.74555 12.8821 1.50451 13.3262 1.3595 13.8144C1.21111 14.3141 1.14062 14.9343 1.14062 15.6406C1.14062 16.354 1.21275 16.9807 1.36447 17.4859C1.513 17.9806 1.75903 18.4274 2.16013 18.679C2.58235 18.9439 3.06015 18.92 3.36699 18.8666ZM7.0625 11.5391V11.0391H6.5625H4.92188H4.42188V11.5391V19.7969V20.2969H4.92188H6.5625H7.0625V19.7969V11.5391ZM23.0781 20.2969H23.5781V19.7969V11.5391V11.0391H23.0781H21.4375H20.9375V11.5391V19.7969V20.2969H21.4375H23.0781ZM14 26.8594H15.6406C16.3691 26.8594 16.9609 26.2675 16.9609 25.5391C16.9609 24.8106 16.3691 24.2188 15.6406 24.2188H14C13.2715 24.2188 12.6797 24.8106 12.6797 25.5391C12.6797 26.2675 13.2715 26.8594 14 26.8594Z"/>
</symbol><symbol viewBox="0 0 24 26" id="house" xmlns="http://www.w3.org/2000/svg">
<path d="M19.844 25.9999H16C15.7348 25.9999 15.4804 25.8945 15.2929 25.707C15.1054 25.5194 15 25.2651 15 24.9999V17.7938C14.9984 17.0533 14.7035 16.3436 14.1799 15.8199C13.6563 15.2963 12.9465 15.0014 12.206 14.9999H11.794C11.0535 15.0014 10.3437 15.2963 9.8201 15.8199C9.29646 16.3436 9.00159 17.0533 9 17.7938V24.9999C9 25.2651 8.89464 25.5194 8.70711 25.707C8.51957 25.8945 8.26522 25.9999 8 25.9999H4.156C3.05409 25.9988 1.99761 25.5606 1.21843 24.7814C0.439262 24.0022 0.00105903 22.9458 0 21.8438V9.99985C2.24885e-05 9.85171 0.032959 9.70542 0.0964286 9.57156C0.159898 9.43771 0.252316 9.31962 0.367 9.22585L11.367 0.225848C11.5456 0.0797917 11.7693 0 12 0C12.2307 0 12.4544 0.0797917 12.633 0.225848L23.633 9.22585C23.7477 9.31962 23.8401 9.43771 23.9036 9.57156C23.967 9.70542 24 9.85171 24 9.99985V21.8438C23.9989 22.9458 23.5607 24.0022 22.7816 24.7814C22.0024 25.5606 20.9459 25.9988 19.844 25.9999ZM17 23.9998H19.844C20.4156 23.9993 20.9637 23.772 21.3679 23.3678C21.7722 22.9636 21.9995 22.4155 22 21.8438V10.4738L12 2.29185L2 10.4738V21.8438C2.00053 22.4155 2.22785 22.9636 2.63206 23.3678C3.03628 23.772 3.58436 23.9993 4.156 23.9998H7V17.7938C7.00159 16.5229 7.50718 15.3044 8.40588 14.4057C9.30459 13.507 10.523 13.0014 11.794 12.9999H12.206C13.477 13.0014 14.6954 13.507 15.5941 14.4057C16.4928 15.3044 16.9984 16.5229 17 17.7938V23.9998Z"/>
</symbol><symbol viewBox="0 0 11 11" id="insta" xmlns="http://www.w3.org/2000/svg">
<path d="M5.8125 3.09473C4.4375 3.09473 3.3418 4.21191 3.3418 5.56543C3.3418 6.94043 4.4375 8.03613 5.8125 8.03613C7.16602 8.03613 8.2832 6.94043 8.2832 5.56543C8.2832 4.21191 7.16602 3.09473 5.8125 3.09473ZM5.8125 7.17676C4.93164 7.17676 4.20117 6.46777 4.20117 5.56543C4.20117 4.68457 4.91016 3.97559 5.8125 3.97559C6.69336 3.97559 7.40234 4.68457 7.40234 5.56543C7.40234 6.46777 6.69336 7.17676 5.8125 7.17676ZM8.94922 3.00879C8.94922 2.68652 8.69141 2.42871 8.36914 2.42871C8.04688 2.42871 7.78906 2.68652 7.78906 3.00879C7.78906 3.33105 8.04688 3.58887 8.36914 3.58887C8.69141 3.58887 8.94922 3.33105 8.94922 3.00879ZM10.582 3.58887C10.5391 2.81543 10.3672 2.12793 9.80859 1.56934C9.25 1.01074 8.5625 0.838867 7.78906 0.795898C6.99414 0.75293 4.60938 0.75293 3.81445 0.795898C3.04102 0.838867 2.375 1.01074 1.79492 1.56934C1.23633 2.12793 1.06445 2.81543 1.02148 3.58887C0.978516 4.38379 0.978516 6.76855 1.02148 7.56348C1.06445 8.33691 1.23633 9.00293 1.79492 9.58301C2.375 10.1416 3.04102 10.3135 3.81445 10.3564C4.60938 10.3994 6.99414 10.3994 7.78906 10.3564C8.5625 10.3135 9.25 10.1416 9.80859 9.58301C10.3672 9.00293 10.5391 8.33691 10.582 7.56348C10.625 6.76855 10.625 4.38379 10.582 3.58887ZM9.55078 8.40137C9.40039 8.83105 9.05664 9.15332 8.64844 9.3252C8.00391 9.58301 6.5 9.51855 5.8125 9.51855C5.10352 9.51855 3.59961 9.58301 2.97656 9.3252C2.54688 9.15332 2.22461 8.83105 2.05273 8.40137C1.79492 7.77832 1.85938 6.27441 1.85938 5.56543C1.85938 4.87793 1.79492 3.37402 2.05273 2.72949C2.22461 2.32129 2.54688 1.99902 2.97656 1.82715C3.59961 1.56934 5.10352 1.63379 5.8125 1.63379C6.5 1.63379 8.00391 1.56934 8.64844 1.82715C9.05664 1.97754 9.37891 2.32129 9.55078 2.72949C9.80859 3.37402 9.74414 4.87793 9.74414 5.56543C9.74414 6.27441 9.80859 7.77832 9.55078 8.40137Z"/>
</symbol><symbol viewBox="0 0 28 28" id="like" xmlns="http://www.w3.org/2000/svg">
<g opacity="0.9">
<rect width="28" height="28" rx="14"/>
<g clip-path="url(#arclip0_113_13541)">
<path d="M20.3791 9.54073C18.8294 8.09195 16.3071 8.09195 14.7569 9.5404L14.4346 9.84118L14.1126 9.54054C12.5623 8.09189 10.0403 8.09206 8.48995 9.54054C7.72875 10.2519 7.30957 11.1954 7.30957 12.197C7.30957 13.1989 7.72875 14.1422 8.49007 14.8538L14.0904 20.0774C14.1867 20.1675 14.3107 20.2123 14.4346 20.2123C14.5584 20.2123 14.6822 20.1673 14.7787 20.0772L20.3791 14.8538C21.1402 14.1424 21.5596 13.1989 21.5596 12.1971C21.5596 11.1954 21.1402 10.252 20.3791 9.54073ZM19.6901 14.1416L14.4346 19.0437L9.17924 14.1417C8.6184 13.6178 8.30958 12.9271 8.30958 12.1971C8.30958 11.4671 8.6184 10.7765 9.17924 10.2525C9.76424 9.70561 10.5326 9.43234 11.3011 9.43234C12.0697 9.43234 12.8384 9.70594 13.4234 10.2528L14.0901 10.8749C14.2831 11.0552 14.5859 11.0552 14.7789 10.8749L15.4457 10.2525C16.6159 9.15887 18.5197 9.15887 19.6899 10.2525C20.2506 10.7765 20.5596 11.4671 20.5596 12.1971C20.5596 12.9271 20.2506 13.6176 19.6901 14.1416Z"/>
</g>
</g>
<defs>
<clipPath id="arclip0_113_13541">
<rect width="14.25" height="14" transform="translate(7.30957 7.33301)"/>
</clipPath>
</defs>
</symbol><symbol viewBox="0 0 10 10" id="linkedin" xmlns="http://www.w3.org/2000/svg">
<path d="M2.14844 9.69043V3.2666H0.150391V9.69043H2.14844ZM1.13867 2.40723C1.7832 2.40723 2.29883 1.87012 2.29883 1.22559C2.29883 0.602539 1.7832 0.0869141 1.13867 0.0869141C0.515625 0.0869141 0 0.602539 0 1.22559C0 1.87012 0.515625 2.40723 1.13867 2.40723ZM9.60352 9.69043H9.625V6.16699C9.625 4.44824 9.23828 3.11621 7.21875 3.11621C6.25195 3.11621 5.60742 3.65332 5.32812 4.14746H5.30664V3.2666H3.39453V9.69043H5.39258V6.51074C5.39258 5.67285 5.54297 4.87793 6.57422 4.87793C7.60547 4.87793 7.62695 5.82324 7.62695 6.5752V9.69043H9.60352Z"/>
</symbol><symbol viewBox="0 0 28 24" id="main" xmlns="http://www.w3.org/2000/svg">
<path d="M10.112 0.857422H3.888C3.12213 0.858103 2.38786 1.11924 1.8464 1.58351C1.30494 2.04778 1.00053 2.67724 1 3.33371V8.66685C1.00053 9.32331 1.30494 9.95277 1.8464 10.417C2.38786 10.8813 3.12213 11.1425 3.888 11.1431H10.112C10.8779 11.1425 11.6121 10.8813 12.1536 10.417C12.6951 9.95277 12.9995 9.32331 13 8.66685V3.33371C12.9995 2.67724 12.6951 2.04778 12.1536 1.58351C11.6121 1.11924 10.8779 0.858103 10.112 0.857422ZM11 8.66685C11 8.8688 10.9065 9.06248 10.74 9.20536C10.5735 9.34824 10.3476 9.42862 10.112 9.42885H3.888C3.6524 9.42862 3.42653 9.34824 3.26003 9.20536C3.09352 9.06248 3 8.8688 3 8.66685V3.33371C3 3.13176 3.09352 2.93807 3.26003 2.79519C3.42653 2.65232 3.6524 2.57193 3.888 2.57171H10.112C10.3476 2.57193 10.5735 2.65232 10.74 2.79519C10.9065 2.93807 11 3.13176 11 3.33371V8.66685Z"/>
<path d="M24.112 0.857422H17.888C17.1221 0.858103 16.3879 1.11924 15.8464 1.58351C15.3049 2.04778 15.0005 2.67724 15 3.33371V8.66685C15.0005 9.32331 15.3049 9.95277 15.8464 10.417C16.3879 10.8813 17.1221 11.1425 17.888 11.1431H24.112C24.8779 11.1425 25.6121 10.8813 26.1536 10.417C26.6951 9.95277 26.9995 9.32331 27 8.66685V3.33371C26.9995 2.67724 26.6951 2.04778 26.1536 1.58351C25.6121 1.11924 24.8779 0.858103 24.112 0.857422ZM25 8.66685C25 8.8688 24.9065 9.06248 24.74 9.20536C24.5735 9.34824 24.3476 9.42862 24.112 9.42885H17.888C17.6524 9.42862 17.4265 9.34824 17.26 9.20536C17.0935 9.06248 17 8.8688 17 8.66685V3.33371C17 3.13176 17.0935 2.93807 17.26 2.79519C17.4265 2.65232 17.6524 2.57193 17.888 2.57171H24.112C24.3476 2.57193 24.5735 2.65232 24.74 2.79519C24.9065 2.93807 25 3.13176 25 3.33371V8.66685Z"/>
<path d="M24.112 12.8574H17.888C17.1221 12.8581 16.3879 13.1192 15.8464 13.5835C15.3049 14.0478 15.0005 14.6772 15 15.3337V20.6669C15.0005 21.3233 15.3049 21.9528 15.8464 22.417C16.3879 22.8813 17.1221 23.1425 17.888 23.1431H24.112C24.8779 23.1425 25.6121 22.8813 26.1536 22.417C26.6951 21.9528 26.9995 21.3233 27 20.6669V15.3337C26.9995 14.6772 26.6951 14.0478 26.1536 13.5835C25.6121 13.1192 24.8779 12.8581 24.112 12.8574ZM25 20.6669C25 20.8688 24.9065 21.0625 24.74 21.2054C24.5735 21.3482 24.3476 21.4286 24.112 21.4289H17.888C17.6524 21.4286 17.4265 21.3482 17.26 21.2054C17.0935 21.0625 17 20.8688 17 20.6669V15.3337C17 15.1318 17.0935 14.9381 17.26 14.7952C17.4265 14.6523 17.6524 14.5719 17.888 14.5717H24.112C24.3476 14.5719 24.5735 14.6523 24.74 14.7952C24.9065 14.9381 25 15.1318 25 15.3337V20.6669Z"/>
<path d="M10.112 12.8574H3.888C3.12213 12.8581 2.38786 13.1192 1.8464 13.5835C1.30494 14.0478 1.00053 14.6772 1 15.3337V20.6669C1.00053 21.3233 1.30494 21.9528 1.8464 22.417C2.38786 22.8813 3.12213 23.1425 3.888 23.1431H10.112C10.8779 23.1425 11.6121 22.8813 12.1536 22.417C12.6951 21.9528 12.9995 21.3233 13 20.6669V15.3337C12.9995 14.6772 12.6951 14.0478 12.1536 13.5835C11.6121 13.1192 10.8779 12.8581 10.112 12.8574ZM11 20.6669C11 20.8688 10.9065 21.0625 10.74 21.2054C10.5735 21.3482 10.3476 21.4286 10.112 21.4289H3.888C3.6524 21.4286 3.42653 21.3482 3.26003 21.2054C3.09352 21.0625 3 20.8688 3 20.6669V15.3337C3 15.1318 3.09352 14.9381 3.26003 14.7952C3.42653 14.6523 3.6524 14.5719 3.888 14.5717H10.112C10.3476 14.5719 10.5735 14.6523 10.74 14.7952C10.9065 14.9381 11 15.1318 11 15.3337V20.6669Z"/>
</symbol><symbol viewBox="0 0 32 32" id="menu" xmlns="http://www.w3.org/2000/svg">
<path d="M2.28544 7.99959H29.714C30.0171 7.99959 30.3078 7.87918 30.5221 7.66485C30.7365 7.45052 30.8569 7.15983 30.8569 6.85673C30.8569 6.55362 30.7365 6.26293 30.5221 6.0486C30.3078 5.83428 30.0171 5.71387 29.714 5.71387H2.28544C1.98233 5.71387 1.69164 5.83428 1.47731 6.0486C1.26299 6.26293 1.14258 6.55362 1.14258 6.85673C1.14258 7.15983 1.26299 7.45052 1.47731 7.66485C1.69164 7.87918 1.98233 7.99959 2.28544 7.99959Z"/>
<path d="M29.714 14.8574H2.28544C1.98233 14.8574 1.69164 14.9778 1.47731 15.1922C1.26299 15.4065 1.14258 15.6972 1.14258 16.0003C1.14258 16.3034 1.26299 16.5941 1.47731 16.8084C1.69164 17.0227 1.98233 17.1431 2.28544 17.1431H29.714C30.0171 17.1431 30.3078 17.0227 30.5221 16.8084C30.7365 16.5941 30.8569 16.3034 30.8569 16.0003C30.8569 15.6972 30.7365 15.4065 30.5221 15.1922C30.3078 14.9778 30.0171 14.8574 29.714 14.8574Z"/>
<path d="M29.714 24H2.28544C1.98233 24 1.69164 24.1204 1.47731 24.3347C1.26299 24.5491 1.14258 24.8397 1.14258 25.1429C1.14258 25.446 1.26299 25.7366 1.47731 25.951C1.69164 26.1653 1.98233 26.2857 2.28544 26.2857H29.714C30.0171 26.2857 30.3078 26.1653 30.5221 25.951C30.7365 25.7366 30.8569 25.446 30.8569 25.1429C30.8569 24.8397 30.7365 24.5491 30.5221 24.3347C30.3078 24.1204 30.0171 24 29.714 24Z"/>
</symbol><symbol viewBox="0 0 28 28" id="monitor" xmlns="http://www.w3.org/2000/svg">
<g clip-path="url(#avclip0_19_7706)">
<path d="M28 24.5197L22.6775 19.1972L23.8054 18.0693L22.6453 16.9092L20.3252 19.2294L18.7291 17.6334C20.3477 15.7629 21.328 13.3258 21.328 10.664C21.328 4.78388 16.5442 0 10.664 0C4.78388 0 0 4.78388 0 10.664C0 16.5442 4.78388 21.3281 10.664 21.3281C13.2931 21.3281 15.7025 20.3712 17.5637 18.7882L19.1651 20.3895L16.8449 22.7097L18.005 23.8698L19.1973 22.6776L24.5197 28.0001L28 24.5197ZM1.64067 10.664C1.64067 5.68847 5.68857 1.64057 10.6641 1.64057C15.6396 1.64057 19.6875 5.68847 19.6875 10.664C19.6875 15.6395 15.6396 19.6874 10.6641 19.6874C5.68857 19.6874 1.64067 15.6395 1.64067 10.664ZM21.5174 20.3573L25.6798 24.5197L24.5197 25.6798L20.3573 21.5174L21.5174 20.3573Z"/>
<path d="M5.16211 10.9043L6.3222 12.0644L6.56249 11.8241V15.5859H14.7656V11.8241L15.0059 12.0644L16.166 10.9043L10.6641 5.40234L5.16211 10.9043ZM13.125 13.9452H11.4844V10.664H9.84374V13.9452H8.20312V10.1834L10.6641 7.72251L13.125 10.1834V13.9452Z"/>
</g>
<defs>
<clipPath id="avclip0_19_7706">
<rect width="28" height="28"/>
</clipPath>
</defs>
</symbol><symbol viewBox="0 0 6 31" id="more" xmlns="http://www.w3.org/2000/svg">
<path d="M3 16.9141C4.10457 16.9141 5 16.1306 5 15.1641C5 14.1976 4.10457 13.4141 3 13.4141C1.89543 13.4141 1 14.1976 1 15.1641C1 16.1306 1.89543 16.9141 3 16.9141Z" stroke-width="2" stroke-linecap="round" stroke-linejoin="round"/>
<path d="M3 4.66407C4.10457 4.66407 5 3.88057 5 2.91407C5 1.94757 4.10457 1.16406 3 1.16406C1.89543 1.16406 1 1.94757 1 2.91407C1 3.88057 1.89543 4.66407 3 4.66407Z" stroke-width="2" stroke-linecap="round" stroke-linejoin="round"/>
<path d="M3 29.1641C4.10457 29.1641 5 28.3806 5 27.4141C5 26.4476 4.10457 25.6641 3 25.6641C1.89543 25.6641 1 26.4476 1 27.4141C1 28.3806 1.89543 29.1641 3 29.1641Z" stroke-width="2" stroke-linecap="round" stroke-linejoin="round"/>
</symbol><symbol viewBox="0 0 23 24" id="next" xmlns="http://www.w3.org/2000/svg">
<path d="M5 18L11 12L5 6" stroke-opacity="0.4" stroke-width="2" stroke-linecap="round" stroke-linejoin="round"/>
<path d="M12 18L18 12L12 6" stroke-width="2" stroke-linecap="round" stroke-linejoin="round"/>
</symbol><symbol viewBox="0 0 28 28" id="orders" xmlns="http://www.w3.org/2000/svg">
<g clip-path="url(#ayclip0_19_327)">
<path d="M7.4375 13.125C5.9665 13.125 4.52854 13.5612 3.30545 14.3784C2.08236 15.1957 1.12908 16.3573 0.566149 17.7163C0.00322255 19.0753 -0.144065 20.5708 0.142913 22.0135C0.42989 23.4562 1.13824 24.7815 2.1784 25.8216C3.21855 26.8618 4.54378 27.5701 5.98652 27.8571C7.42925 28.1441 8.92468 27.9968 10.2837 27.4339C11.6427 26.8709 12.8043 25.9176 13.6216 24.6946C14.4388 23.4715 14.875 22.0335 14.875 20.5625C14.8728 18.5906 14.0885 16.7001 12.6942 15.3058C11.2999 13.9115 9.40937 13.1272 7.4375 13.125V13.125ZM7.4375 26.25C6.31262 26.25 5.213 25.9164 4.2777 25.2915C3.34239 24.6665 2.61341 23.7783 2.18294 22.739C1.75246 21.6998 1.63983 20.5562 1.85929 19.4529C2.07874 18.3497 2.62042 17.3362 3.41583 16.5408C4.21124 15.7454 5.22466 15.2037 6.32793 14.9843C7.43119 14.7648 8.57476 14.8775 9.61401 15.3079C10.6533 15.7384 11.5415 16.4674 12.1665 17.4027C12.7914 18.338 13.125 19.4376 13.125 20.5625C13.1233 22.0704 12.5236 23.5161 11.4573 24.5823C10.3911 25.6486 8.94541 26.2483 7.4375 26.25V26.25ZM10.9375 20.5625C10.9375 20.7946 10.8453 21.0171 10.6812 21.1812C10.5171 21.3453 10.2946 21.4375 10.0625 21.4375H8.3125V23.1875C8.3125 23.4196 8.22031 23.6421 8.05622 23.8062C7.89213 23.9703 7.66957 24.0625 7.4375 24.0625C7.20544 24.0625 6.98288 23.9703 6.81878 23.8062C6.65469 23.6421 6.5625 23.4196 6.5625 23.1875V21.4375H4.8125C4.58044 21.4375 4.35788 21.3453 4.19378 21.1812C4.02969 21.0171 3.9375 20.7946 3.9375 20.5625C3.9375 20.3304 4.02969 20.1079 4.19378 19.9438C4.35788 19.7797 4.58044 19.6875 4.8125 19.6875H6.5625V17.9375C6.5625 17.7054 6.65469 17.4829 6.81878 17.3188C6.98288 17.1547 7.20544 17.0625 7.4375 17.0625C7.66957 17.0625 7.89213 17.1547 8.05622 17.3188C8.22031 17.4829 8.3125 17.7054 8.3125 17.9375V19.6875H10.0625C10.2946 19.6875 10.5171 19.7797 10.6812 19.9438C10.8453 20.1079 10.9375 20.3304 10.9375 20.5625ZM26.6875 5.75483V2.625C26.6875 1.92881 26.4109 1.26113 25.9187 0.768845C25.4264 0.276562 24.7587 0 24.0625 0C23.3663 0 22.6986 0.276562 22.2063 0.768845C21.7141 1.26113 21.4375 1.92881 21.4375 2.625V2.81203L17.4701 0.590231C17.0777 0.3723 16.6363 0.257937 16.1875 0.257937C15.7387 0.257937 15.2973 0.3723 14.9049 0.590231L5.71743 5.73523C5.31049 5.96351 4.97166 6.296 4.73574 6.69856C4.49981 7.10111 4.37531 7.55921 4.375 8.02581C4.37485 8.4174 4.45581 8.80479 4.61278 9.16356C4.76974 9.52232 4.99931 9.84469 5.28701 10.1103C5.57472 10.376 5.91433 10.5792 6.28444 10.7071C6.65456 10.835 7.04716 10.8849 7.4375 10.8536V11.375C7.4375 11.6071 7.52969 11.8296 7.69378 11.9937C7.85788 12.1578 8.08044 12.25 8.3125 12.25C8.54457 12.25 8.76712 12.1578 8.93122 11.9937C9.09531 11.8296 9.1875 11.6071 9.1875 11.375V10.1728L15.7602 6.49224C15.8909 6.41953 16.038 6.38136 16.1875 6.38136C16.337 6.38136 16.4841 6.41953 16.6148 6.49224L23.1875 10.1729V18.8125C23.1872 19.0445 23.095 19.2669 22.9309 19.4309C22.7669 19.595 22.5445 19.6872 22.3125 19.6875H19.6875V14C19.6867 13.304 19.4099 12.6368 18.9178 12.1447C18.4257 11.6526 17.7585 11.3758 17.0625 11.375H15.3125C14.8111 11.376 14.3203 11.5201 13.898 11.7904C13.4756 12.0606 13.1391 12.4458 12.9281 12.9007C12.8784 13.0052 12.85 13.1186 12.8444 13.2341C12.8388 13.3497 12.8562 13.4653 12.8956 13.5741C12.935 13.6829 12.9955 13.7829 13.0738 13.8681C13.1521 13.9534 13.2465 14.0223 13.3515 14.0708C13.4566 14.1193 13.5703 14.1465 13.6859 14.1508C13.8016 14.1551 13.9169 14.1364 14.0253 14.0958C14.1337 14.0552 14.2329 13.9935 14.3173 13.9143C14.4017 13.8351 14.4695 13.7399 14.5168 13.6343C14.5872 13.4825 14.6995 13.3539 14.8405 13.2637C14.9814 13.1735 15.1452 13.1254 15.3125 13.125H17.0625C17.2945 13.1253 17.5169 13.2175 17.6809 13.3816C17.845 13.5456 17.9372 13.768 17.9375 14V19.6875H17.0625C16.8304 19.6875 16.6079 19.7797 16.4438 19.9438C16.2797 20.1079 16.1875 20.3304 16.1875 20.5625C16.1875 20.7946 16.2797 21.0171 16.4438 21.1812C16.6079 21.3453 16.8304 21.4375 17.0625 21.4375H22.3125C23.0085 21.4367 23.6757 21.1599 24.1678 20.6678C24.6599 20.1757 24.9367 19.5085 24.9375 18.8125V10.8534C25.0125 10.8595 25.0875 10.8678 25.1626 10.8678C25.9151 10.865 26.6358 10.5645 27.1675 10.032C27.6991 9.49951 27.9984 8.77826 28 8.02581C27.9994 7.56545 27.8779 7.11333 27.6475 6.71476C27.4172 6.31618 27.0861 5.98515 26.6875 5.75483V5.75483ZM23.1875 2.625C23.1875 2.39294 23.2797 2.17038 23.4438 2.00628C23.6079 1.84219 23.8304 1.75 24.0625 1.75C24.2946 1.75 24.5171 1.84219 24.6812 2.00628C24.8453 2.17038 24.9375 2.39294 24.9375 2.625V4.77208L23.1875 3.79207V2.625ZM25.7119 8.96437C25.5488 9.06228 25.3626 9.11487 25.1724 9.11671C24.9822 9.11856 24.795 9.06959 24.6301 8.97487L17.4701 4.96523C17.0777 4.7473 16.6363 4.63294 16.1875 4.63294C15.7387 4.63294 15.2973 4.7473 14.9049 4.96523L7.74489 8.97496C7.57931 9.06777 7.39234 9.11565 7.20253 9.11384C7.01273 9.11202 6.8267 9.06058 6.66293 8.96462C6.49916 8.86866 6.36335 8.73152 6.26898 8.56683C6.17461 8.40214 6.12498 8.21562 6.125 8.02581C6.12513 7.87033 6.16663 7.71768 6.24524 7.58354C6.32386 7.44939 6.43676 7.33859 6.57235 7.2625L15.7602 2.1175C15.8909 2.04491 16.038 2.00681 16.1875 2.00681C16.337 2.00681 16.4841 2.04491 16.6148 2.1175L25.8023 7.2625C25.938 7.33845 26.051 7.44921 26.1297 7.58338C26.2084 7.71754 26.2499 7.87026 26.25 8.02581C26.2519 8.21595 26.203 8.40315 26.1085 8.56812C26.0139 8.7331 25.8771 8.86988 25.7121 8.96437H25.7119Z"/>
</g>
<defs>
<clipPath id="ayclip0_19_327">
<rect width="28" height="28"/>
</clipPath>
</defs>
</symbol><symbol viewBox="0 0 28 29" id="paper" xmlns="http://www.w3.org/2000/svg">
<path d="M25.3722 13.6823C24.4937 12.9782 23.1497 13.062 22.387 13.929L21.9287 14.446L25.1773 17.0447L25.6149 16.5296C26.3676 15.6761 26.2724 14.4014 25.3722 13.6823Z"/>
<path d="M16.1978 20.9111L15.956 21.1839C15.7462 21.4234 15.595 21.7097 15.5191 22.013L14.8621 24.6346C14.8 24.8827 14.8904 25.1433 15.0954 25.3072C15.2949 25.467 15.5762 25.5134 15.8305 25.4098L18.4249 24.3372C18.7252 24.2128 18.9944 24.0214 19.2042 23.7838L19.4468 23.5101L16.1978 20.9111Z"/>
<path d="M21.0166 15.4746L17.1094 19.8821L20.3582 22.4811L24.2652 18.0733L21.0166 15.4746Z"/>
<path d="M19.7149 8.15299L17.03 5.72087C16.7761 5.49146 16.4639 5.35633 16.1348 5.26855V9.20847H20.3308C20.2431 8.80822 20.0292 8.43743 19.7149 8.15299Z"/>
<path d="M14.145 21.6994C14.2713 21.1953 14.5232 20.7183 14.8725 20.3195L20.3762 14.1107V10.5547H15.4288C15.0381 10.5547 14.722 10.2533 14.722 9.88086V5.16406H4.12033C2.95113 5.16406 2 6.07086 2 7.18555V26.1426C2 27.2573 2.95113 28.1641 4.12033 28.1641H18.2559C19.4251 28.1641 20.3762 27.2573 20.3762 26.1426V24.5497L20.2844 24.6532C19.9373 25.0474 19.4893 25.3653 18.9903 25.5726L16.3937 26.6458C15.6619 26.9471 14.8147 26.8404 14.1878 26.3398C13.5687 25.8443 13.3002 25.0711 13.4879 24.321L14.145 21.6994ZM5.53389 9.20703H12.6017C12.9923 9.20703 13.3085 9.50841 13.3085 9.88086C13.3085 10.2533 12.9923 10.5547 12.6017 10.5547H5.53389C5.14323 10.5547 4.82711 10.2533 4.82711 9.88086C4.82711 9.50841 5.14323 9.20703 5.53389 9.20703ZM5.53389 13.2949H16.8423C17.233 13.2949 17.5491 13.5963 17.5491 13.9688C17.5491 14.3412 17.233 14.6426 16.8423 14.6426H5.53389C5.14323 14.6426 4.82711 14.3412 4.82711 13.9688C4.82711 13.5963 5.14323 13.2949 5.53389 13.2949ZM11.1881 22.7285H5.53389C5.14323 22.7285 4.82711 22.4271 4.82711 22.0547C4.82711 21.6822 5.14323 21.3809 5.53389 21.3809H11.1881C11.5788 21.3809 11.8949 21.6822 11.8949 22.0547C11.8949 22.4271 11.5788 22.7285 11.1881 22.7285ZM5.53389 18.6855C5.14323 18.6855 4.82711 18.3842 4.82711 18.0117C4.82711 17.6393 5.14323 17.3379 5.53389 17.3379H14.0152C14.4059 17.3379 14.722 17.6393 14.722 18.0117C14.722 18.3842 14.4059 18.6855 14.0152 18.6855H5.53389Z"/>
</symbol><symbol viewBox="0 0 28 28" id="partner" xmlns="http://www.w3.org/2000/svg">
<g clip-path="url(#baclip0_19_3387)">
<path d="M20.6176 2.04694C20.4638 1.89185 20.254 1.80469 20.0355 1.80469C19.8169 1.80469 19.6074 1.89206 19.4534 2.04715L17.03 4.48929C16.8696 4.65079 16.6566 4.73987 16.4306 4.73987C16.2584 4.73987 12.1395 4.73987 11.4177 4.73987C11.1915 4.73987 10.9787 4.65079 10.8168 4.48801L8.43594 2.10056C8.28213 1.94611 8.07299 1.85938 7.8551 1.85938C7.85488 1.85938 7.85446 1.85938 7.85424 1.85938C7.63592 1.85959 7.42678 1.94696 7.27297 2.10184L0.18345 9.24369C-0.134635 9.56413 -0.133995 10.0813 0.184945 10.4011L2.21821 12.4382C2.60338 12.8264 2.81551 13.3427 2.81551 13.8923C2.81551 14.6035 3.01503 15.2837 3.38588 15.8696C2.57881 16.851 2.63093 18.3126 3.54311 19.2314C3.98467 19.6764 4.56295 19.9336 5.1831 19.964C5.21151 20.5638 5.45247 21.1551 5.90621 21.6121C6.34777 22.057 6.92605 22.3142 7.54641 22.3446C7.57461 22.9444 7.81579 23.5357 8.26931 23.9927C8.98346 24.7122 10.0082 24.8935 10.8736 24.5827C10.9928 24.9271 11.1885 25.2501 11.4611 25.5246C12.435 26.506 14.0143 26.5062 14.9884 25.5246L15.3347 25.1759C15.5511 24.9578 15.7188 24.709 15.8384 24.4434C16.8072 25.2994 18.3004 25.2804 19.2444 24.3293C19.6982 23.8724 19.9391 23.2811 19.9673 22.6812C20.5875 22.6511 21.166 22.3937 21.6075 21.9487C22.0613 21.4918 22.3022 20.9005 22.3307 20.3006C22.9506 20.2705 23.5291 20.0131 23.9706 19.5683C24.8777 18.6547 24.9347 17.2039 24.1418 16.2226C24.7196 15.4084 25.0326 14.4367 25.0326 13.4162C25.0326 13.1771 25.1285 12.9434 25.2957 12.7749L27.7071 10.3447C28.0246 10.0249 28.0246 9.5088 27.7071 9.189L20.6176 2.04694ZM4.70757 16.8508L5.88912 15.6605C6.22088 15.3262 6.75579 15.326 7.08776 15.6605C7.42315 15.9982 7.42315 16.5477 7.08776 16.8852L5.90621 18.0757C5.57424 18.4101 5.03954 18.4101 4.70757 18.0757C4.37239 17.738 4.37239 17.1886 4.70757 16.8508ZM7.07067 19.2314L9.43378 16.8508C9.76575 16.5165 10.3007 16.5163 10.6326 16.8508C10.9678 17.1886 10.9678 17.738 10.6326 18.0757C9.79031 18.9242 9.74545 18.9693 8.26931 20.4564C7.93734 20.7905 7.40264 20.7907 7.07067 20.4561C6.7355 20.1186 6.7355 19.5692 7.07067 19.2314ZM9.43378 22.8368C9.0986 22.4992 9.0986 21.9498 9.43378 21.6121L10.6153 20.4217C10.9473 20.0874 11.4822 20.0874 11.8142 20.4217C12.1237 20.7336 12.1468 21.2256 11.8845 21.5653C11.8123 21.6319 11.9197 21.5247 10.6326 22.8368C10.3007 23.1713 9.76596 23.1715 9.43378 22.8368ZM14.1704 24.02L13.8242 24.3687C13.4922 24.7032 12.9575 24.7032 12.6255 24.3687C12.32 24.061 12.2938 23.578 12.545 23.2392C12.9953 22.784 12.9733 22.8109 13.0517 22.725C13.3867 22.4616 13.865 22.4877 14.1704 22.7953C14.5056 23.1331 14.5054 23.6825 14.1704 24.02ZM22.8064 18.4124C22.4744 18.7467 21.9395 18.7467 21.6075 18.4124L20.0799 16.8735C19.7608 16.552 19.2412 16.55 18.9197 16.8692C18.5982 17.1883 18.5963 17.7077 18.9155 18.0292L20.4433 19.5681C20.7785 19.9058 20.7785 20.4553 20.4433 20.7928C20.1113 21.1273 19.5764 21.1273 19.2444 20.7928L17.7168 19.2539C17.3974 18.9324 16.8781 18.9304 16.5566 19.2496C16.2351 19.5687 16.2332 20.0883 16.5524 20.4098L18.08 21.9487C18.4154 22.2865 18.4154 22.8359 18.08 23.1734C17.7482 23.508 17.2133 23.508 16.8811 23.1734C15.273 21.5666 15.3501 21.6018 15.1882 21.504C14.7703 21.1442 14.2527 20.9357 13.7011 20.9075C13.6714 20.31 13.4305 19.7213 12.9786 19.2658C12.7469 19.0326 12.4773 18.851 12.184 18.7266C12.7402 17.769 12.6114 16.5154 11.7969 15.6951C10.962 14.8541 9.7132 14.7522 8.78201 15.2976C8.66131 15.0094 8.48507 14.7392 8.25222 14.5048C7.2781 13.5234 5.699 13.5234 4.72466 14.5048L4.59392 14.6366C4.50377 14.4025 4.45613 14.151 4.45613 13.8923C4.45613 12.9067 4.07482 11.98 3.38097 11.2808L1.92299 9.82005L7.85638 3.84265L9.65381 5.64499C10.0554 6.0496 10.5705 6.29847 11.127 6.36298L7.46118 10.7617C7.17129 11.1099 7.21829 11.6271 7.56628 11.917C8.40774 12.6183 9.47201 12.9501 10.563 12.8509C11.6538 12.7518 12.6409 12.2338 13.3431 11.391C13.6368 11.0386 14.1309 10.9324 14.5451 11.1323C15.3905 11.5408 16.3195 11.6899 17.2334 11.5733L22.8064 17.1875C23.1416 17.5252 23.1416 18.0747 22.8064 18.4124ZM24.1315 11.619C23.6545 12.0994 23.3919 12.7377 23.3919 13.4162C23.3919 13.9887 23.2435 14.5377 22.9662 15.0196L18.9763 11.0005C19.792 10.5468 20.4608 9.8647 20.9045 9.01917C21.1149 8.61799 20.9603 8.12217 20.5591 7.91175C20.1579 7.70112 19.6621 7.85578 19.4517 8.25697C19.0065 9.10548 18.2423 9.67179 17.3863 9.88157C17.3487 9.88734 17.3114 9.89546 17.2748 9.90657C16.6171 10.0426 15.9119 9.97065 15.2589 9.65513C14.1653 9.12684 12.8594 9.40882 12.0819 10.3419C11.661 10.8467 11.0689 11.1575 10.4145 11.2171C10.0426 11.2509 9.67603 11.2011 9.33594 11.0749L13.1335 6.51722C13.4311 6.42643 13.7396 6.37345 14.0506 6.37345H16.4306C17.0971 6.37345 17.7234 6.11924 18.1945 5.64499L20.0357 3.78946L25.9693 9.76686L24.1315 11.619Z"/>
</g>
<defs>
<clipPath id="baclip0_19_3387">
<rect width="28" height="28"/>
</clipPath>
</defs>
</symbol><symbol viewBox="0 0 24 24" id="pen" xmlns="http://www.w3.org/2000/svg">
<path d="M0 18.9995V24.0002H5.00069L19.756 9.24483L14.7553 4.24414L0 18.9995Z"/>
<path d="M23.61 3.5038L20.4962 0.390054C19.9762 -0.130018 19.1294 -0.130018 18.6093 0.390054L16.1689 2.83039L21.1696 7.83108L23.61 5.39074C24.1301 4.87067 24.1301 4.02387 23.61 3.5038Z"/>
</symbol><symbol viewBox="0 0 24 24" id="prev" xmlns="http://www.w3.org/2000/svg">
<path d="M12 18L6 12L12 6" stroke-width="2" stroke-linecap="round" stroke-linejoin="round"/>
<path d="M19 18L13 12L19 6" stroke-opacity="0.4" stroke-width="2" stroke-linecap="round" stroke-linejoin="round"/>
</symbol><symbol viewBox="0 0 32 33" id="search" xmlns="http://www.w3.org/2000/svg">
<path d="M29.7956 28.6796L25.143 24.027C27.4136 21.3396 28.5579 17.8786 28.3367 14.3673C28.1155 10.8561 26.546 7.56608 23.9561 5.18479C21.3662 2.80351 17.9563 1.51517 14.4388 1.58894C10.9213 1.66271 7.56844 3.09289 5.08067 5.58067C2.59289 8.06844 1.16271 11.4213 1.08894 14.9388C1.01517 18.4563 2.30351 21.8662 4.68479 24.4561C7.06608 27.046 10.3561 28.6155 13.8673 28.8367C17.3786 29.0579 20.8396 27.9136 23.527 25.643L28.1796 30.2956C28.3951 30.5038 28.6838 30.619 28.9835 30.6164C29.2831 30.6138 29.5698 30.4936 29.7817 30.2817C29.9936 30.0698 30.1138 29.7831 30.1164 29.4835C30.119 29.1838 30.0038 28.8951 29.7956 28.6796ZM14.7533 26.5779C12.5135 26.5779 10.324 25.9137 8.46171 24.6693C6.59939 23.425 5.1479 21.6563 4.29077 19.587C3.43363 17.5177 3.20937 15.2407 3.64633 13.044C4.08329 10.8472 5.16185 8.82939 6.74562 7.24562C8.32939 5.66185 10.3472 4.58329 12.544 4.14633C14.7407 3.70937 17.0177 3.93363 19.087 4.79077C21.1563 5.6479 22.925 7.09939 24.1693 8.96171C25.4137 10.824 26.0779 13.0135 26.0779 15.2533C26.0746 18.2557 24.8804 21.1343 22.7573 23.2573C20.6343 25.3804 17.7557 26.5746 14.7533 26.5779Z"/>
</symbol><symbol viewBox="0 0 10 6" id="select" xmlns="http://www.w3.org/2000/svg">
<path d="M9.84016 0.540538L9.5126 0.210698C9.40951 0.107689 9.27235 0.0509402 9.12577 0.0509402C8.97926 0.0509402 8.84194 0.107689 8.73885 0.210698L5.00224 3.94748L1.26131 0.206551C1.15838 0.103542 1.02107 0.046875 0.87456 0.046875C0.728055 0.046875 0.590655 0.103542 0.487646 0.206551L0.160001 0.534359C-0.0533338 0.747531 -0.0533338 1.09477 0.160001 1.30794L4.61402 5.77798C4.71695 5.88091 4.8541 5.95343 5.00191 5.95343H5.00362C5.1502 5.95343 5.28736 5.88082 5.39029 5.77798L9.84016 1.32006C9.94325 1.21713 9.99984 1.07583 10 0.929321C10 0.782735 9.94325 0.643384 9.84016 0.540538Z"/>
</symbol><symbol viewBox="0 0 28 28" id="settings" xmlns="http://www.w3.org/2000/svg">
<mask id="bfpath-1-inside-1_19_9100">
<path d="M24.035 10.1009H23.158C22.884 9.46725 22.5445 8.86397 22.145 8.3009L22.593 7.5539C22.9974 6.87964 23.1176 6.0724 22.9271 5.30959C22.7365 4.54679 22.2509 3.89083 21.577 3.4859L19.8 2.4209C19.1256 2.01761 18.3189 1.89809 17.5566 2.08853C16.7942 2.27897 16.1385 2.76385 15.733 3.4369L15.286 4.1839C14.4322 4.0739 13.5678 4.0739 12.714 4.1839L12.267 3.4369C11.8615 2.76385 11.2058 2.27897 10.4434 2.08853C9.68111 1.89809 8.87437 2.01761 8.2 2.4209L6.423 3.4859C5.74905 3.89083 5.26346 4.54679 5.07294 5.30959C4.88243 6.0724 5.00258 6.87964 5.407 7.5539L5.855 8.2999C5.45574 8.86345 5.11625 9.46704 4.842 10.1009H3.964C3.17805 10.102 2.42461 10.4147 1.86895 10.9706C1.31329 11.5264 1.00079 12.2799 1 13.0659V15.1359C1.00079 15.9218 1.31329 16.6754 1.86895 17.2312C2.42461 17.7871 3.17805 18.0998 3.964 18.1009H4.842C5.11631 18.7344 5.4558 19.3377 5.855 19.9009L5.407 20.6469C5.00258 21.3211 4.88243 22.1284 5.07294 22.8912C5.26346 23.654 5.74905 24.31 6.423 24.7149L8.2 25.7809C8.87417 26.185 9.68117 26.305 10.4437 26.1145C11.2063 25.924 11.8621 25.4386 12.267 24.7649L12.714 24.0179C13.5678 24.1279 14.4322 24.1279 15.286 24.0179L15.733 24.7649C16.1385 25.4379 16.7942 25.9228 17.5566 26.1133C18.3189 26.3037 19.1256 26.1842 19.8 25.7809L21.576 24.7159C22.2499 24.311 22.7355 23.655 22.9261 22.8922C23.1166 22.1294 22.9964 21.3221 22.592 20.6479L22.144 19.9009C22.5438 19.3379 22.8836 18.7346 23.158 18.1009H24.035C24.8211 18.1001 25.5748 17.7875 26.1307 17.2316C26.6866 16.6757 26.9992 15.922 27 15.1359V13.0659C26.9992 12.2798 26.6866 11.5261 26.1307 10.9702C25.5748 10.4143 24.8211 10.1017 24.035 10.1009ZM25 15.1359C24.9997 15.3917 24.898 15.637 24.7171 15.818C24.5361 15.9989 24.2909 16.1006 24.035 16.1009H22.477C22.2704 16.101 22.069 16.1651 21.9003 16.2844C21.7316 16.4036 21.604 16.5722 21.535 16.7669C21.2259 17.6524 20.7628 18.4764 20.167 19.2009C20.0353 19.3604 19.9562 19.5569 19.9408 19.7632C19.9254 19.9695 19.9744 20.1756 20.081 20.3529L20.881 21.6829C20.9463 21.7914 20.9896 21.9118 21.0083 22.0371C21.027 22.1624 21.0208 22.2902 20.99 22.4131C20.9593 22.536 20.9046 22.6516 20.8291 22.7533C20.7536 22.8551 20.6587 22.9409 20.55 23.0059L18.775 24.0709C18.6663 24.1361 18.5459 24.1793 18.4205 24.1979C18.2952 24.2166 18.1674 24.2103 18.0444 24.1796C17.9215 24.1489 17.8058 24.0942 17.704 24.0188C17.6022 23.9433 17.5162 23.8486 17.451 23.7399L16.651 22.4119C16.5466 22.2338 16.3892 22.0927 16.2009 22.0083C16.0125 21.9238 15.8024 21.9003 15.6 21.9409C14.5472 22.1529 13.4628 22.1529 12.41 21.9409C12.2074 21.8982 11.9964 21.9203 11.807 22.0039C11.6175 22.0875 11.4591 22.2284 11.354 22.4069L10.554 23.7349C10.4889 23.8435 10.403 23.9383 10.3013 24.0137C10.1996 24.0891 10.084 24.1438 9.96109 24.1745C9.83822 24.2053 9.71051 24.2115 9.58523 24.1929C9.45996 24.1742 9.33959 24.1311 9.231 24.0659L7.453 23.0009C7.34426 22.9359 7.24942 22.8501 7.17391 22.7483C7.0984 22.6466 7.04371 22.531 7.01296 22.4081C6.98221 22.2852 6.97602 22.1574 6.99473 22.0321C7.01344 21.9068 7.05669 21.7864 7.122 21.6779L7.922 20.3479C8.02706 20.1708 8.07489 19.9656 8.05896 19.7603C8.04303 19.555 7.96412 19.3597 7.833 19.2009C7.23797 18.4783 6.7752 17.6564 6.466 16.7729C6.39795 16.5769 6.27062 16.4069 6.10166 16.2865C5.9327 16.1661 5.73047 16.1012 5.523 16.1009H3.964C3.70832 16.1004 3.46328 15.9985 3.28258 15.8176C3.10188 15.6367 3.00026 15.3916 3 15.1359V13.0659C3.00026 12.8102 3.10188 12.5651 3.28258 12.3842C3.46328 12.2033 3.70832 12.1014 3.964 12.1009H5.523C5.72987 12.1009 5.93165 12.0368 6.10054 11.9173C6.26943 11.7979 6.39711 11.629 6.466 11.4339C6.77466 10.5486 7.23746 9.72496 7.833 9.0009C7.96475 8.84137 8.04377 8.6449 8.05917 8.43857C8.07458 8.23225 8.0256 8.02622 7.919 7.8489L7.119 6.5189C6.98894 6.29973 6.95106 6.03794 7.01366 5.79089C7.07627 5.54384 7.23425 5.33168 7.453 5.2009L9.228 4.1359C9.44766 4.00502 9.71019 3.96637 9.95825 4.02838C10.2063 4.0904 10.4198 4.24805 10.552 4.4669L11.352 5.7949C11.4576 5.97282 11.6161 6.11335 11.8054 6.19688C11.9947 6.28042 12.2054 6.3028 12.408 6.2609C13.4608 6.04891 14.5452 6.04891 15.598 6.2609C15.8006 6.30189 16.0109 6.27909 16.2 6.19564C16.3891 6.11219 16.5477 5.97219 16.654 5.7949L17.454 4.4669C17.586 4.24812 17.7993 4.09049 18.0472 4.02847C18.2951 3.96644 18.5575 4.00507 18.777 4.1359L20.547 5.2009C20.6557 5.26591 20.7506 5.35174 20.8261 5.45346C20.9016 5.55519 20.9563 5.67081 20.987 5.79371C21.0178 5.91661 21.024 6.04437 21.0053 6.16967C20.9866 6.29497 20.9433 6.41535 20.878 6.5239L20.078 7.8539C19.9729 8.03099 19.9251 8.23619 19.941 8.44148C19.957 8.64677 20.0359 8.84214 20.167 9.0009C20.7622 9.72385 21.2253 10.5461 21.535 11.4299C21.604 11.6246 21.7316 11.7932 21.9003 11.9124C22.069 12.0317 22.2704 12.0958 22.477 12.0959H24.035C24.2909 12.0962 24.5361 12.1979 24.7171 12.3788C24.898 12.5597 24.9997 12.805 25 13.0609V15.1359Z"/>
</mask>
<path d="M24.035 10.1009H23.158C22.884 9.46725 22.5445 8.86397 22.145 8.3009L22.593 7.5539C22.9974 6.87964 23.1176 6.0724 22.9271 5.30959C22.7365 4.54679 22.2509 3.89083 21.577 3.4859L19.8 2.4209C19.1256 2.01761 18.3189 1.89809 17.5566 2.08853C16.7942 2.27897 16.1385 2.76385 15.733 3.4369L15.286 4.1839C14.4322 4.0739 13.5678 4.0739 12.714 4.1839L12.267 3.4369C11.8615 2.76385 11.2058 2.27897 10.4434 2.08853C9.68111 1.89809 8.87437 2.01761 8.2 2.4209L6.423 3.4859C5.74905 3.89083 5.26346 4.54679 5.07294 5.30959C4.88243 6.0724 5.00258 6.87964 5.407 7.5539L5.855 8.2999C5.45574 8.86345 5.11625 9.46704 4.842 10.1009H3.964C3.17805 10.102 2.42461 10.4147 1.86895 10.9706C1.31329 11.5264 1.00079 12.2799 1 13.0659V15.1359C1.00079 15.9218 1.31329 16.6754 1.86895 17.2312C2.42461 17.7871 3.17805 18.0998 3.964 18.1009H4.842C5.11631 18.7344 5.4558 19.3377 5.855 19.9009L5.407 20.6469C5.00258 21.3211 4.88243 22.1284 5.07294 22.8912C5.26346 23.654 5.74905 24.31 6.423 24.7149L8.2 25.7809C8.87417 26.185 9.68117 26.305 10.4437 26.1145C11.2063 25.924 11.8621 25.4386 12.267 24.7649L12.714 24.0179C13.5678 24.1279 14.4322 24.1279 15.286 24.0179L15.733 24.7649C16.1385 25.4379 16.7942 25.9228 17.5566 26.1133C18.3189 26.3037 19.1256 26.1842 19.8 25.7809L21.576 24.7159C22.2499 24.311 22.7355 23.655 22.9261 22.8922C23.1166 22.1294 22.9964 21.3221 22.592 20.6479L22.144 19.9009C22.5438 19.3379 22.8836 18.7346 23.158 18.1009H24.035C24.8211 18.1001 25.5748 17.7875 26.1307 17.2316C26.6866 16.6757 26.9992 15.922 27 15.1359V13.0659C26.9992 12.2798 26.6866 11.5261 26.1307 10.9702C25.5748 10.4143 24.8211 10.1017 24.035 10.1009ZM25 15.1359C24.9997 15.3917 24.898 15.637 24.7171 15.818C24.5361 15.9989 24.2909 16.1006 24.035 16.1009H22.477C22.2704 16.101 22.069 16.1651 21.9003 16.2844C21.7316 16.4036 21.604 16.5722 21.535 16.7669C21.2259 17.6524 20.7628 18.4764 20.167 19.2009C20.0353 19.3604 19.9562 19.5569 19.9408 19.7632C19.9254 19.9695 19.9744 20.1756 20.081 20.3529L20.881 21.6829C20.9463 21.7914 20.9896 21.9118 21.0083 22.0371C21.027 22.1624 21.0208 22.2902 20.99 22.4131C20.9593 22.536 20.9046 22.6516 20.8291 22.7533C20.7536 22.8551 20.6587 22.9409 20.55 23.0059L18.775 24.0709C18.6663 24.1361 18.5459 24.1793 18.4205 24.1979C18.2952 24.2166 18.1674 24.2103 18.0444 24.1796C17.9215 24.1489 17.8058 24.0942 17.704 24.0188C17.6022 23.9433 17.5162 23.8486 17.451 23.7399L16.651 22.4119C16.5466 22.2338 16.3892 22.0927 16.2009 22.0083C16.0125 21.9238 15.8024 21.9003 15.6 21.9409C14.5472 22.1529 13.4628 22.1529 12.41 21.9409C12.2074 21.8982 11.9964 21.9203 11.807 22.0039C11.6175 22.0875 11.4591 22.2284 11.354 22.4069L10.554 23.7349C10.4889 23.8435 10.403 23.9383 10.3013 24.0137C10.1996 24.0891 10.084 24.1438 9.96109 24.1745C9.83822 24.2053 9.71051 24.2115 9.58523 24.1929C9.45996 24.1742 9.33959 24.1311 9.231 24.0659L7.453 23.0009C7.34426 22.9359 7.24942 22.8501 7.17391 22.7483C7.0984 22.6466 7.04371 22.531 7.01296 22.4081C6.98221 22.2852 6.97602 22.1574 6.99473 22.0321C7.01344 21.9068 7.05669 21.7864 7.122 21.6779L7.922 20.3479C8.02706 20.1708 8.07489 19.9656 8.05896 19.7603C8.04303 19.555 7.96412 19.3597 7.833 19.2009C7.23797 18.4783 6.7752 17.6564 6.466 16.7729C6.39795 16.5769 6.27062 16.4069 6.10166 16.2865C5.9327 16.1661 5.73047 16.1012 5.523 16.1009H3.964C3.70832 16.1004 3.46328 15.9985 3.28258 15.8176C3.10188 15.6367 3.00026 15.3916 3 15.1359V13.0659C3.00026 12.8102 3.10188 12.5651 3.28258 12.3842C3.46328 12.2033 3.70832 12.1014 3.964 12.1009H5.523C5.72987 12.1009 5.93165 12.0368 6.10054 11.9173C6.26943 11.7979 6.39711 11.629 6.466 11.4339C6.77466 10.5486 7.23746 9.72496 7.833 9.0009C7.96475 8.84137 8.04377 8.6449 8.05917 8.43857C8.07458 8.23225 8.0256 8.02622 7.919 7.8489L7.119 6.5189C6.98894 6.29973 6.95106 6.03794 7.01366 5.79089C7.07627 5.54384 7.23425 5.33168 7.453 5.2009L9.228 4.1359C9.44766 4.00502 9.71019 3.96637 9.95825 4.02838C10.2063 4.0904 10.4198 4.24805 10.552 4.4669L11.352 5.7949C11.4576 5.97282 11.6161 6.11335 11.8054 6.19688C11.9947 6.28042 12.2054 6.3028 12.408 6.2609C13.4608 6.04891 14.5452 6.04891 15.598 6.2609C15.8006 6.30189 16.0109 6.27909 16.2 6.19564C16.3891 6.11219 16.5477 5.97219 16.654 5.7949L17.454 4.4669C17.586 4.24812 17.7993 4.09049 18.0472 4.02847C18.2951 3.96644 18.5575 4.00507 18.777 4.1359L20.547 5.2009C20.6557 5.26591 20.7506 5.35174 20.8261 5.45346C20.9016 5.55519 20.9563 5.67081 20.987 5.79371C21.0178 5.91661 21.024 6.04437 21.0053 6.16967C20.9866 6.29497 20.9433 6.41535 20.878 6.5239L20.078 7.8539C19.9729 8.03099 19.9251 8.23619 19.941 8.44148C19.957 8.64677 20.0359 8.84214 20.167 9.0009C20.7622 9.72385 21.2253 10.5461 21.535 11.4299C21.604 11.6246 21.7316 11.7932 21.9003 11.9124C22.069 12.0317 22.2704 12.0958 22.477 12.0959H24.035C24.2909 12.0962 24.5361 12.1979 24.7171 12.3788C24.898 12.5597 24.9997 12.805 25 13.0609V15.1359Z" stroke-width="36.5714" mask="url(#bfpath-1-inside-1_19_9100)"/>
<path d="M14 9.10059C13.0111 9.10059 12.0444 9.39383 11.2222 9.94324C10.3999 10.4926 9.75904 11.2735 9.3806 12.1872C9.00217 13.1008 8.90315 14.1061 9.09608 15.076C9.289 16.0459 9.76521 16.9368 10.4645 17.6361C11.1637 18.3354 12.0546 18.8116 13.0246 19.0045C13.9945 19.1974 14.9998 19.0984 15.9134 18.72C16.8271 18.3415 17.6079 17.7007 18.1574 16.8784C18.7068 16.0562 19 15.0895 19 14.1006C18.9984 12.775 18.4711 11.5041 17.5338 10.5668C16.5964 9.62947 15.3256 9.10217 14 9.10059ZM14 17.1006C13.4067 17.1006 12.8266 16.9246 12.3333 16.595C11.8399 16.2653 11.4554 15.7968 11.2284 15.2486C11.0013 14.7004 10.9419 14.0973 11.0576 13.5153C11.1734 12.9334 11.4591 12.3988 11.8787 11.9793C12.2982 11.5597 12.8328 11.274 13.4147 11.1582C13.9967 11.0425 14.5999 11.1019 15.1481 11.3289C15.6962 11.556 16.1648 11.9405 16.4944 12.4339C16.8241 12.9272 17 13.5072 17 14.1006C17 14.8962 16.6839 15.6593 16.1213 16.2219C15.5587 16.7845 14.7957 17.1006 14 17.1006Z"/>
</symbol><symbol viewBox="0 0 26 26" id="smile" xmlns="http://www.w3.org/2000/svg">
<path fill-rule="evenodd" clip-rule="evenodd" d="M12.9544 25.9646C20.0366 25.9646 25.7779 20.2232 25.7779 13.141C25.7779 6.05879 20.0366 0.317505 12.9544 0.317505C5.87215 0.317505 0.130859 6.05879 0.130859 13.141C0.130859 20.2232 5.87215 25.9646 12.9544 25.9646ZM12.9549 23.3999C18.6207 23.3999 23.2137 18.8069 23.2137 13.141C23.2137 7.47524 18.6207 2.88222 12.9549 2.88222C7.2891 2.88222 2.69607 7.47524 2.69607 13.141C2.69607 18.8069 7.2891 23.3999 12.9549 23.3999ZM9.10784 11.8587C9.81605 11.8587 10.3902 11.2846 10.3902 10.5763C10.3902 9.8681 9.81605 9.29398 9.10784 9.29398C8.39962 9.29398 7.82548 9.8681 7.82548 10.5763C7.82548 11.2846 8.39962 11.8587 9.10784 11.8587ZM18.0843 14.4234C18.0843 17.2562 15.7877 19.5528 12.9549 19.5528C10.122 19.5528 7.82548 17.2562 7.82548 14.4234H10.3902C10.3902 15.8399 11.5384 16.9881 12.9549 16.9881C14.3714 16.9881 15.5196 15.8399 15.5196 14.4234H18.0843ZM16.802 11.8587C17.5102 11.8587 18.0843 11.2846 18.0843 10.5763C18.0843 9.8681 17.5102 9.29398 16.802 9.29398C16.0937 9.29398 15.5196 9.8681 15.5196 10.5763C15.5196 11.2846 16.0937 11.8587 16.802 11.8587Z"/>
</symbol><symbol viewBox="0 0 30 26" id="sms" xmlns="http://www.w3.org/2000/svg">
<path d="M25.5209 0.428711H4.47858C3.32916 0.430524 2.22733 0.887934 1.41457 1.7007C0.601801 2.51346 0.144392 3.61529 0.142578 4.76471V21.2356C0.144392 22.385 0.601801 23.4868 1.41457 24.2996C2.22733 25.1123 3.32916 25.5698 4.47858 25.5716H25.5209C26.6703 25.5698 27.7721 25.1123 28.5849 24.2996C29.3976 23.4868 29.8551 22.385 29.8569 21.2356V4.76471C29.8551 3.61529 29.3976 2.51346 28.5849 1.7007C27.7721 0.887934 26.6703 0.430524 25.5209 0.428711ZM4.47858 2.71443H25.5209C26.0154 2.71604 26.4926 2.89652 26.8644 3.22254C27.2362 3.54856 27.4775 3.99809 27.5437 4.48814L17.4397 12.9076C16.755 13.479 15.8915 13.792 14.9997 13.792C14.1079 13.792 13.2444 13.479 12.5597 12.9076L2.45572 4.48814C2.52195 3.99809 2.76324 3.54856 3.13505 3.22254C3.50687 2.89652 3.98408 2.71604 4.47858 2.71443ZM25.5209 23.2859H4.47858C3.93537 23.284 3.41492 23.0675 3.0308 22.6833C2.64669 22.2992 2.4301 21.7788 2.42829 21.2356V7.44014L11.0957 14.663C12.1916 15.5765 13.5731 16.0768 14.9997 16.0768C16.4264 16.0768 17.8079 15.5765 18.9037 14.663L27.5712 7.44014V21.2356C27.5693 21.7788 27.3528 22.2992 26.9686 22.6833C26.5845 23.0675 26.0641 23.284 25.5209 23.2859Z"/>
</symbol><symbol viewBox="0 0 67 47" id="sofa" xmlns="http://www.w3.org/2000/svg">
<path d="M64.9536 35.1187H63.891V26.6177C63.8895 25.4908 63.4412 24.4105 62.6444 23.6137C61.8476 22.8169 60.7673 22.3686 59.6404 22.3671V4.3023C59.639 3.17544 59.1907 2.09516 58.3938 1.29834C57.597 0.501532 56.5167 0.0532339 55.3899 0.0517578H10.7592C9.63231 0.0532339 8.55203 0.501532 7.75521 1.29834C6.9584 2.09516 6.5101 3.17544 6.50863 4.3023V22.3671C5.38177 22.3686 4.30148 22.8169 3.50467 23.6137C2.70786 24.4105 2.25956 25.4908 2.25808 26.6177V35.1187H1.19545C0.91362 35.1187 0.643334 35.2307 0.444051 35.43C0.244768 35.6293 0.132813 35.8996 0.132812 36.1814V40.4319C0.132813 40.7137 0.244768 40.984 0.444051 41.1833C0.643334 41.3826 0.91362 41.4946 1.19545 41.4946H2.25808V45.7451C2.25808 46.0269 2.37004 46.2972 2.56932 46.4965C2.76861 46.6958 3.03889 46.8077 3.32072 46.8077H6.50863C6.75423 46.8079 6.99226 46.7228 7.18216 46.567C7.37206 46.4113 7.50206 46.1945 7.55001 45.9536L8.44263 41.4946H57.7064L58.599 45.9536C58.647 46.1945 58.777 46.4113 58.9669 46.567C59.1568 46.7228 59.3948 46.8079 59.6404 46.8077H62.8283C63.1102 46.8077 63.3805 46.6958 63.5797 46.4965C63.779 46.2972 63.891 46.0269 63.891 45.7451V41.4946H64.9536C65.2354 41.4946 65.5057 41.3826 65.705 41.1833C65.9043 40.984 66.0162 40.7137 66.0162 40.4319V36.1814C66.0162 35.8996 65.9043 35.6293 65.705 35.43C65.5057 35.2307 65.2354 35.1187 64.9536 35.1187ZM8.6339 4.3023C8.63464 3.73887 8.85879 3.19873 9.25719 2.80032C9.6556 2.40192 10.1957 2.17777 10.7592 2.17703H55.3899C55.9533 2.17777 56.4935 2.40192 56.8919 2.80032C57.2903 3.19873 57.5144 3.73887 57.5152 4.3023V22.3671H55.3899V18.1166C55.3884 16.9897 54.9401 15.9094 54.1433 15.1126C53.3465 14.3158 52.2662 13.8675 51.1393 13.866H38.3877C37.2608 13.8675 36.1806 14.3158 35.3838 15.1126C34.5869 15.9094 34.1386 16.9897 34.1372 18.1166V22.3671H32.0119V18.1166C32.0104 16.9897 31.5621 15.9094 30.7653 15.1126C29.9685 14.3158 28.8882 13.8675 27.7613 13.866H15.0097C13.8829 13.8675 12.8026 14.3158 12.0058 15.1126C11.2089 15.9094 10.7606 16.9897 10.7592 18.1166V22.3671H8.6339V4.3023ZM53.2646 18.1166V22.3671H36.2624V18.1166C36.2632 17.5531 36.4873 17.013 36.8857 16.6146C37.2841 16.2162 37.8243 15.992 38.3877 15.9913H51.1393C51.7028 15.992 52.2429 16.2162 52.6413 16.6146C53.0397 17.013 53.2639 17.5531 53.2646 18.1166ZM29.8866 18.1166V22.3671H12.8844V18.1166C12.8852 17.5531 13.1093 17.013 13.5077 16.6146C13.9061 16.2162 14.4463 15.992 15.0097 15.9913H27.7613C28.3248 15.992 28.8649 16.2162 29.2633 16.6146C29.6617 17.013 29.8859 17.5531 29.8866 18.1166ZM4.38336 26.6177C4.38409 26.0542 4.60824 25.5141 5.00665 25.1157C5.40506 24.7173 5.9452 24.4931 6.50863 24.4924H59.6404C60.2039 24.4931 60.744 24.7173 61.1424 25.1157C61.5408 25.5141 61.765 26.0542 61.7657 26.6177V35.1187H4.38336V26.6177ZM5.63727 44.6825H4.38336V41.4946H6.27485L5.63727 44.6825ZM61.7657 44.6825H60.5118L59.8742 41.4946H61.7657V44.6825ZM63.891 39.3693H2.25808V37.244H63.891V39.3693Z"/>
</symbol><symbol viewBox="0 0 11 16" id="sort" xmlns="http://www.w3.org/2000/svg">
<path d="M0.659141 6.68729H9.88629C10.0648 6.68729 10.2193 6.62404 10.3497 6.49742C10.48 6.37084 10.5455 6.22095 10.5455 6.04771C10.5455 5.87448 10.4801 5.72465 10.3497 5.5979L5.73612 1.12053C5.60577 0.994093 5.45135 0.930664 5.27273 0.930664C5.09411 0.930664 4.9397 0.994093 4.80923 1.12053L0.195643 5.5979C0.0651783 5.72451 0 5.87448 0 6.04771C0 6.22092 0.0651783 6.37084 0.195643 6.49742C0.326252 6.62404 0.480667 6.68729 0.659141 6.68729Z"/>
<path d="M9.88629 9.24609H0.659141C0.480523 9.24609 0.326108 9.30938 0.195643 9.43586C0.0651783 9.56247 0 9.71232 0 9.88556C0 10.0588 0.0651783 10.2088 0.195643 10.3353L4.80923 14.8126C4.93984 14.9392 5.09426 15.0026 5.27273 15.0026C5.45121 15.0026 5.60577 14.9392 5.73612 14.8126L10.3497 10.3353C10.48 10.2088 10.5455 10.0588 10.5455 9.88553C10.5455 9.71232 10.4801 9.56247 10.3497 9.43582C10.2194 9.30924 10.0648 9.24609 9.88629 9.24609Z"/>
</symbol><symbol viewBox="0 0 51 44" id="stairs" xmlns="http://www.w3.org/2000/svg">
<path d="M49.3425 0.0078125H34.6587C34.1252 0.0078125 33.6927 0.440307 33.6927 0.973849V4.83829C33.6927 5.37183 34.1252 5.80432 34.6587 5.80432H36.5909V13.0297H18.2362C17.7028 13.0297 17.2702 13.4622 17.2702 13.9957V17.8601C17.2702 18.3936 17.7028 18.8261 18.2362 18.8261H20.1684V26.0517H1.81369C1.28015 26.0517 0.847656 26.4842 0.847656 27.0177V30.882C0.847656 31.4155 1.28015 31.848 1.81369 31.848H3.16576V42.5909C3.16576 43.1244 3.59825 43.5569 4.13179 43.5569H21.6905C21.9084 43.5569 22.1199 43.4832 22.2907 43.3478L49.9428 21.4215C50.1739 21.2383 50.3085 20.9595 50.3085 20.6646V4.83829V0.973849C50.3085 0.440307 49.8761 0.0078125 49.3425 0.0078125ZM19.2023 16.894V14.9618H36.5909V16.894H19.2023ZM2.77973 29.9159V27.9838H20.1684V29.9159H2.77973ZM48.3765 7.66665H44.4123C43.8788 7.66665 43.4463 8.09914 43.4463 8.63269C43.4463 9.16623 43.8788 9.59872 44.4123 9.59872H48.3765V20.1976L21.3538 41.6249H5.09783V35.611H9.06206C9.5955 35.611 10.0281 35.1785 10.0281 34.645C10.0281 34.1114 9.5955 33.6789 9.06206 33.6789H5.09783V31.848H21.1344C21.668 31.848 22.1005 31.4155 22.1005 30.882V27.0177V18.8261H37.5569C38.0905 18.8261 38.523 18.3936 38.523 17.8601V13.9957V5.80432H48.3765V7.66665ZM48.3765 3.87225H35.6248V1.93989H48.3765V3.87225Z"/>
<path d="M11.8609 33.6777H11.8381C11.3045 33.6777 10.8721 34.1102 10.8721 34.6437C10.8721 35.1773 11.3045 35.6097 11.8381 35.6097H11.8609C12.3944 35.6097 12.8269 35.1773 12.8269 34.6437C12.8269 34.1102 12.3944 33.6777 11.8609 33.6777Z"/>
<path d="M41.6145 9.60004H41.6372C42.1706 9.60004 42.6032 9.16755 42.6032 8.63401C42.6032 8.10046 42.1706 7.66797 41.6372 7.66797H41.6145C41.0809 7.66797 40.6484 8.10046 40.6484 8.63401C40.6484 9.16755 41.0809 9.60004 41.6145 9.60004Z"/>
</symbol><symbol viewBox="0 0 27 26" id="stat" xmlns="http://www.w3.org/2000/svg">
<path d="M15.0049 0C14.7397 0 14.4853 0.105357 14.2978 0.292893C14.1102 0.48043 14.0049 0.734784 14.0049 1V11C14.0049 11.2652 14.1102 11.5196 14.2978 11.7071C14.4853 11.8946 14.7397 12 15.0049 12H25.0049C25.2701 12 25.5245 11.8946 25.712 11.7071C25.8995 11.5196 26.0049 11.2652 26.0049 11C26.0014 8.08368 24.8414 5.28778 22.7793 3.22563C20.7171 1.16347 17.9212 0.00344047 15.0049 0V0ZM16.0049 10V2.056C18.0327 2.28581 19.9225 3.19661 21.3657 4.63955C22.8088 6.08249 23.7198 7.97225 23.9499 10H16.0049Z"/>
<path d="M21.0045 14.077H12.0045V5C12.0045 4.73478 11.8992 4.48043 11.7116 4.29289C11.5241 4.10536 11.2697 4 11.0045 4C9.53308 3.9994 8.07648 4.29401 6.72094 4.86641C5.36541 5.4388 4.13849 6.27734 3.11281 7.33239C2.08714 8.38743 1.28357 9.63753 0.749664 11.0087C0.215759 12.3798 -0.0376252 13.8442 0.00451146 15.315C0.115875 18.1101 1.27493 20.761 3.25129 22.7407C5.22765 24.7204 7.87657 25.8839 10.6715 26H11.0085C13.9105 25.999 16.6946 24.8513 18.7542 22.8069C20.8138 20.7624 21.9821 17.9869 22.0045 15.085C22.0056 14.953 21.9805 14.8221 21.9307 14.6999C21.8809 14.5776 21.8074 14.4664 21.7145 14.3727C21.6215 14.279 21.5109 14.2046 21.3891 14.1539C21.2672 14.1031 21.1365 14.077 21.0045 14.077V14.077ZM17.2445 21.483C16.3834 22.3185 15.3629 22.972 14.2437 23.4045C13.1245 23.8369 11.9297 24.0395 10.7305 24C8.44408 23.9051 6.27708 22.9533 4.66033 21.3337C3.04358 19.7142 2.09548 17.5456 2.00451 15.259C1.94044 13.0014 2.72748 10.8023 4.20944 9.09807C5.69139 7.39382 7.75993 6.30903 10.0045 6.059V15.081C10.0045 15.3462 10.1099 15.6006 10.2974 15.7881C10.4849 15.9756 10.7393 16.081 11.0045 16.081H19.9375C19.6946 18.1398 18.7424 20.0498 17.2445 21.483V21.483Z"/>
</symbol><symbol viewBox="0 0 16 20" id="surface" xmlns="http://www.w3.org/2000/svg">
<path d="M10.4438 1.08197C10.361 0.994745 10.2475 0.942383 10.1298 0.942383H3.08418C1.78409 0.942383 0.710938 2.01126 0.710938 3.31122V16.6345C0.710938 17.9346 1.78409 19.0035 3.08418 19.0035H12.6469C13.947 19.0035 15.0201 17.9346 15.0201 16.6345V6.05527C15.0201 5.94187 14.9678 5.83287 14.8936 5.74992L10.4438 1.08197ZM10.5703 2.48238L13.55 5.61033H11.613C11.0372 5.61033 10.5703 5.14789 10.5703 4.57205V2.48238ZM12.6469 18.131H3.08418C2.26844 18.131 1.58346 17.4548 1.58346 16.6345V3.31122C1.58346 2.49547 2.26403 1.8149 3.08418 1.8149H9.6978V4.57205C9.6978 5.6321 10.553 6.48285 11.613 6.48285H14.1476V16.6345C14.1476 17.4548 13.467 18.131 12.6469 18.131Z"/>
<path d="M11.4569 15.1196H4.2761C4.0362 15.1196 3.83984 15.3159 3.83984 15.5559C3.83984 15.7958 4.0362 15.9922 4.2761 15.9922H11.4613C11.7012 15.9922 11.8976 15.7958 11.8976 15.5559C11.8976 15.3159 11.7012 15.1196 11.4569 15.1196Z"/>
<path d="M7.54804 13.5542C7.63099 13.6414 7.7444 13.6937 7.86648 13.6937C7.98871 13.6937 8.10211 13.6414 8.18493 13.5542L10.7414 10.8101C10.9072 10.6355 10.8941 10.3563 10.7197 10.195C10.5451 10.0292 10.2659 10.0422 10.1046 10.2168L8.30274 12.1493V7.38548C8.30274 7.14544 8.10639 6.94922 7.86648 6.94922C7.62658 6.94922 7.43023 7.14544 7.43023 7.38548V12.1493L5.63283 10.2168C5.46706 10.0423 5.19216 10.0292 5.01771 10.195C4.84326 10.3608 4.83017 10.6357 4.99594 10.8101L7.54804 13.5542Z"/>
</symbol><symbol viewBox="0 0 11 10" id="twitter" xmlns="http://www.w3.org/2000/svg">
<path d="M9.86133 2.33105C10.291 2.00879 10.6777 1.62207 10.9785 1.1709C10.5918 1.34277 10.1406 1.47168 9.68945 1.51465C10.1621 1.23535 10.5059 0.805664 10.6777 0.268555C10.248 0.526367 9.75391 0.719727 9.25977 0.827148C8.83008 0.375977 8.25 0.118164 7.60547 0.118164C6.35938 0.118164 5.34961 1.12793 5.34961 2.37402C5.34961 2.5459 5.37109 2.71777 5.41406 2.88965C3.54492 2.78223 1.86914 1.87988 0.751953 0.526367C0.558594 0.848633 0.451172 1.23535 0.451172 1.66504C0.451172 2.43848 0.837891 3.12598 1.46094 3.53418C1.0957 3.5127 0.730469 3.42676 0.429688 3.25488V3.27637C0.429688 4.37207 1.20312 5.27441 2.23438 5.48926C2.0625 5.53223 1.84766 5.5752 1.6543 5.5752C1.50391 5.5752 1.375 5.55371 1.22461 5.53223C1.50391 6.43457 2.3418 7.0791 3.33008 7.10059C2.55664 7.70215 1.58984 8.06738 0.537109 8.06738C0.34375 8.06738 0.171875 8.0459 0 8.02441C0.988281 8.66895 2.16992 9.03418 3.45898 9.03418C7.60547 9.03418 9.86133 5.61816 9.86133 2.63184C9.86133 2.52441 9.86133 2.43848 9.86133 2.33105Z"/>
</symbol><symbol viewBox="0 0 24 24" id="warning" xmlns="http://www.w3.org/2000/svg">
<path d="M23.5013 17.9972L15.0233 2.41243C13.6612 0.119256 10.3407 0.116209 8.9767 2.41243L0.499073 17.9972C-0.893396 20.3405 0.792463 23.3078 3.52167 23.3078H20.478C23.2049 23.3078 24.8938 20.3429 23.5013 17.9972ZM12 20.4953C11.2248 20.4953 10.5937 19.8642 10.5937 19.089C10.5937 18.3138 11.2248 17.6828 12 17.6828C12.7752 17.6828 13.4062 18.3138 13.4062 19.089C13.4062 19.8642 12.7752 20.4953 12 20.4953ZM13.4062 14.8703C13.4062 15.6455 12.7752 16.2765 12 16.2765C11.2248 16.2765 10.5937 15.6455 10.5937 14.8703V7.83901C10.5937 7.06379 11.2248 6.43276 12 6.43276C12.7752 6.43276 13.4062 7.06379 13.4062 7.83901V14.8703Z"/>
</symbol></svg>