<svg width="11" height="11" viewBox="0 0 11 11" fill="none" xmlns="http://www.w3.org/2000/svg">
<path d="M5.8125 3.09473C4.4375 3.09473 3.3418 4.21191 3.3418 5.56543C3.3418 6.94043 4.4375 8.03613 5.8125 8.03613C7.16602 8.03613 8.2832 6.94043 8.2832 5.56543C8.2832 4.21191 7.16602 3.09473 5.8125 3.09473ZM5.8125 7.17676C4.93164 7.17676 4.20117 6.46777 4.20117 5.56543C4.20117 4.68457 4.91016 3.97559 5.8125 3.97559C6.69336 3.97559 7.40234 4.68457 7.40234 5.56543C7.40234 6.46777 6.69336 7.17676 5.8125 7.17676ZM8.94922 3.00879C8.94922 2.68652 8.69141 2.42871 8.36914 2.42871C8.04688 2.42871 7.78906 2.68652 7.78906 3.00879C7.78906 3.33105 8.04688 3.58887 8.36914 3.58887C8.69141 3.58887 8.94922 3.33105 8.94922 3.00879ZM10.582 3.58887C10.5391 2.81543 10.3672 2.12793 9.80859 1.56934C9.25 1.01074 8.5625 0.838867 7.78906 0.795898C6.99414 0.75293 4.60938 0.75293 3.81445 0.795898C3.04102 0.838867 2.375 1.01074 1.79492 1.56934C1.23633 2.12793 1.06445 2.81543 1.02148 3.58887C0.978516 4.38379 0.978516 6.76855 1.02148 7.56348C1.06445 8.33691 1.23633 9.00293 1.79492 9.58301C2.375 10.1416 3.04102 10.3135 3.81445 10.3564C4.60938 10.3994 6.99414 10.3994 7.78906 10.3564C8.5625 10.3135 9.25 10.1416 9.80859 9.58301C10.3672 9.00293 10.5391 8.33691 10.582 7.56348C10.625 6.76855 10.625 4.38379 10.582 3.58887ZM9.55078 8.40137C9.40039 8.83105 9.05664 9.15332 8.64844 9.3252C8.00391 9.58301 6.5 9.51855 5.8125 9.51855C5.10352 9.51855 3.59961 9.58301 2.97656 9.3252C2.54688 9.15332 2.22461 8.83105 2.05273 8.40137C1.79492 7.77832 1.85938 6.27441 1.85938 5.56543C1.85938 4.87793 1.79492 3.37402 2.05273 2.72949C2.22461 2.32129 2.54688 1.99902 2.97656 1.82715C3.59961 1.56934 5.10352 1.63379 5.8125 1.63379C6.5 1.63379 8.00391 1.56934 8.64844 1.82715C9.05664 1.97754 9.37891 2.32129 9.55078 2.72949C9.80859 3.37402 9.74414 4.87793 9.74414 5.56543C9.74414 6.27441 9.80859 7.77832 9.55078 8.40137Z" fill="#225AA4"/>
</svg>
