<svg width="25" height="41" viewBox="0 0 25 41" fill="none" xmlns="http://www.w3.org/2000/svg">
<path d="M1.1108 22.0998L19.3563 40.345C19.7783 40.7673 20.3416 41 20.9423 41C21.543 41 22.1063 40.7673 22.5283 40.345L23.872 39.0017C24.7463 38.1264 24.7463 36.7037 23.872 35.8297L8.55074 20.5085L23.889 5.17029C24.3109 4.74796 24.5439 4.18496 24.5439 3.58464C24.5439 2.98364 24.3109 2.42065 23.889 1.99798L22.5453 0.654991C22.123 0.232662 21.56 0 20.9593 0C20.3586 0 19.7953 0.232662 19.3733 0.654991L1.1108 18.9168C0.687805 19.3405 0.455473 19.9062 0.456806 20.5075C0.455473 21.1112 0.687805 21.6765 1.1108 22.0998Z" fill="#225AA4"/>
</svg>
