<svg width="10" height="10" viewBox="0 0 10 10" fill="none" xmlns="http://www.w3.org/2000/svg">
<path d="M2.14844 9.69043V3.2666H0.150391V9.69043H2.14844ZM1.13867 2.40723C1.7832 2.40723 2.29883 1.87012 2.29883 1.22559C2.29883 0.602539 1.7832 0.0869141 1.13867 0.0869141C0.515625 0.0869141 0 0.602539 0 1.22559C0 1.87012 0.515625 2.40723 1.13867 2.40723ZM9.60352 9.69043H9.625V6.16699C9.625 4.44824 9.23828 3.11621 7.21875 3.11621C6.25195 3.11621 5.60742 3.65332 5.32812 4.14746H5.30664V3.2666H3.39453V9.69043H5.39258V6.51074C5.39258 5.67285 5.54297 4.87793 6.57422 4.87793C7.60547 4.87793 7.62695 5.82324 7.62695 6.5752V9.69043H9.60352Z" fill="#225AA4"/>
</svg>
