<svg width="129" height="130" viewBox="0 0 129 130" fill="none" xmlns="http://www.w3.org/2000/svg">
<path d="M26.239 71.998H31.2184V93.1295H26.9936L17.605 80.6617V93.1295H12.623V71.998H16.8194L26.2364 84.4956L26.239 71.998Z" fill="#225AA4"/>
<path d="M38.8834 87.1932C39.3736 88.8444 41.0248 89.8855 43.3507 89.8855C45.0589 89.8937 46.7234 89.3458 48.0927 88.3246L50.02 91.4451C48.2449 92.8525 45.763 93.6793 42.983 93.6793C37.565 93.6793 34.082 90.3447 34.082 85.4233C34.082 80.5291 37.5083 77.1016 42.4954 77.1016C48.094 77.1016 51.5809 81.5082 50.6637 87.1984L38.8834 87.1932ZM46.2261 84.0108C45.8288 82.1751 44.513 80.9213 42.5238 80.9213C40.6275 80.9213 39.1891 82.1145 38.8228 84.0108H46.2261Z" fill="#225AA4"/>
<path d="M65.3174 93.2821V70.6426H70.2735V93.2821H65.3174Z" fill="#225AA4"/>
<path d="M61.3648 93.5871C59.7554 93.5871 58.1822 93.1099 56.844 92.2158C55.5058 91.3216 54.4629 90.0507 53.847 88.5638C53.2311 87.0769 53.0699 85.4408 53.3839 83.8623C53.6979 82.2838 54.4729 80.8339 55.6109 79.6959C56.7489 78.5578 58.1989 77.7828 59.7773 77.4689C61.3558 77.1549 62.992 77.316 64.4789 77.9319C65.9658 78.5478 67.2366 79.5908 68.1308 80.929C69.0249 82.2671 69.5021 83.8404 69.5021 85.4498C69.4998 87.6072 68.6417 89.6756 67.1161 91.2011C65.5906 92.7267 63.5223 93.5848 61.3648 93.5871ZM61.3648 82.0545C60.6929 82.054 60.0359 82.2528 59.477 82.6258C58.9181 82.9988 58.4823 83.5291 58.2249 84.1498C57.9674 84.7705 57.8999 85.4536 58.0307 86.1126C58.1616 86.7717 58.485 87.3772 58.9601 87.8524C59.4351 88.3276 60.0404 88.6513 60.6995 88.7824C61.3585 88.9135 62.0416 88.8462 62.6624 88.589C63.2831 88.3318 63.8137 87.8963 64.1869 87.3375C64.56 86.7787 64.7591 86.1218 64.7588 85.4498C64.7578 84.5499 64.3999 83.6871 63.7637 83.0506C63.1275 82.4141 62.2648 82.0559 61.3648 82.0545Z" fill="#225AA4"/>
<path d="M84.8984 77.4961H90.2209L83.9193 93.2818H78.9321L72.6279 77.4961H78.0124L80.3344 84.257L81.4412 87.6536L82.5725 84.257L84.8984 77.4961Z" fill="#225AA4"/>
<path d="M91.9951 72.7833C91.9951 71.0096 93.1884 69.877 95.055 69.877C96.8609 69.877 98.0529 71.0096 98.0529 72.7833C98.0529 74.5571 96.8597 75.7207 95.055 75.7207C93.1884 75.7207 91.9951 74.5584 91.9951 72.7833ZM92.5459 93.2814V77.4957H97.533V93.2814H92.5459Z" fill="#225AA4"/>
<path d="M118.52 77.4954V81.2893H115.645C116.471 82.2375 116.899 83.4617 116.899 84.8691C116.899 88.7842 113.803 91.3539 109.067 91.3539C107.925 91.3687 106.787 91.1944 105.702 90.8379C105.242 91.1127 104.999 91.4829 104.999 91.9086C104.999 92.8877 106.038 93.1986 110.046 93.347C115.828 93.5611 118.491 95.0601 118.491 98.1806C118.491 101.607 115.155 103.626 109.618 103.626C103.407 103.626 100.134 101.791 100.134 98.3638C100.127 97.753 100.245 97.1473 100.482 96.5843C100.719 96.0213 101.069 95.513 101.511 95.091C100.837 94.4176 100.5 93.5611 100.5 92.551C100.5 90.9914 101.205 89.7362 102.642 88.7571C101.725 87.6258 101.234 86.1874 101.234 84.5001C101.234 80.2173 104.263 77.4941 109.067 77.4941L118.52 77.4954ZM109.71 97.137C107.812 97.0751 106.191 96.9228 104.906 96.6468C104.57 97.0144 104.355 97.4427 104.355 97.9019C104.355 99.2165 105.916 99.8292 109.342 99.8292C112.341 99.8292 113.901 99.339 113.901 98.4218C113.907 97.5652 112.768 97.1989 109.71 97.137ZM112.219 84.5014C112.219 82.6954 110.903 81.3809 109.036 81.3809C107.201 81.3809 105.885 82.6967 105.885 84.5014C105.885 86.3371 107.201 87.6529 109.036 87.6529C110.903 87.6529 112.219 86.3371 112.219 84.5014Z" fill="#225AA4"/>
<path d="M70.5506 45.4993C74.1123 38.6881 77.5166 35.3999 78.893 33.4017C79.0522 33.1714 79.1595 32.9092 79.2075 32.6334C79.2555 32.3576 79.243 32.0746 79.171 31.8041C79.099 31.5335 78.9692 31.2818 78.7905 31.0663C78.6117 30.8509 78.3884 30.6767 78.1358 30.5559C77.7742 30.3816 77.3674 30.3237 76.9715 30.39C76.5755 30.4563 76.2099 30.6436 75.9247 30.9262L64.5547 42.2085C62.9705 43.7191 60.8072 43.7488 59.2076 42.2549L55.3376 38.4095C54.2878 37.4043 53.003 36.6779 51.6005 36.2964C50.2318 35.9443 48.7625 35.9752 48.3755 37.5142C47.6015 40.5934 51.2922 40.4012 53.3871 46.7906C55.3221 52.6859 58.262 54.4145 61.5748 54.5099C64.7714 54.6015 67.7564 50.8412 70.5506 45.4993Z" fill="#FBB603"/>
<path d="M72.4492 44.6215C72.4492 44.6215 78.3626 35.4187 79.8732 36.1553C81.3838 36.8918 81.9049 37.9819 72.4492 44.6215Z" fill="#FBB603"/>
<path d="M63.4144 34.7207H65.619C66.0921 34.7207 66.4756 34.3372 66.4756 33.8641V31.6595C66.4756 31.1865 66.0921 30.803 65.619 30.803H63.4144C62.9413 30.803 62.5579 31.1865 62.5579 31.6595V33.8641C62.5579 34.3372 62.9413 34.7207 63.4144 34.7207Z" fill="#FBB603"/>
<path d="M58.6156 34.7207H60.8202C61.2933 34.7207 61.6768 34.3372 61.6768 33.8641V31.6595C61.6768 31.1865 61.2933 30.803 60.8202 30.803H58.6156C58.1425 30.803 57.759 31.1865 57.759 31.6595V33.8641C57.759 34.3372 58.1425 34.7207 58.6156 34.7207Z" fill="#FBB603"/>
<path d="M63.4144 29.9219H65.619C66.0921 29.9219 66.4756 29.5384 66.4756 29.0653V26.8607C66.4756 26.3876 66.0921 26.0041 65.619 26.0041H63.4144C62.9413 26.0041 62.5579 26.3876 62.5579 26.8607V29.0653C62.5579 29.5384 62.9413 29.9219 63.4144 29.9219Z" fill="#FBB603"/>
<path d="M58.6156 29.9219H60.8202C61.2933 29.9219 61.6768 29.5384 61.6768 29.0653V26.8607C61.6768 26.3876 61.2933 26.0041 60.8202 26.0041H58.6156C58.1425 26.0041 57.759 26.3876 57.759 26.8607V29.0653C57.759 29.5384 58.1425 29.9219 58.6156 29.9219Z" fill="#FBB603"/>
<path d="M67.7256 56.25H55.9105C55.7219 56.2497 55.5387 56.3133 55.3909 56.4305C55.2431 56.5476 55.1393 56.7113 55.0965 56.895L54.4386 59.7898C54.4109 59.912 54.4111 60.0389 54.4391 60.1611C54.4671 60.2832 54.5223 60.3976 54.6004 60.4955C54.6786 60.5935 54.7778 60.6727 54.8907 60.7271C55.0035 60.7816 55.1272 60.81 55.2526 60.8102H67.7256C67.9473 60.8102 68.1599 60.7221 68.3167 60.5653C68.4734 60.4086 68.5615 60.1959 68.5615 59.9742V57.0808C68.5601 56.86 68.4715 56.6487 68.3148 56.493C68.1582 56.3374 67.9464 56.25 67.7256 56.25ZM57.2933 59.8027C57.0415 59.8027 56.7954 59.728 56.586 59.5881C56.3766 59.4482 56.2134 59.2493 56.117 59.0167C56.0207 58.784 55.9955 58.528 56.0446 58.281C56.0937 58.0341 56.215 57.8072 56.393 57.6291C56.5711 57.4511 56.798 57.3298 57.045 57.2807C57.2919 57.2315 57.5479 57.2568 57.7806 57.3531C58.0132 57.4495 58.2121 57.6127 58.352 57.8221C58.4919 58.0314 58.5666 58.2776 58.5666 58.5294C58.5667 58.6967 58.5339 58.8623 58.47 59.0169C58.4061 59.1714 58.3123 59.3119 58.194 59.4301C58.0758 59.5484 57.9353 59.6422 57.7808 59.7061C57.6262 59.77 57.4606 59.8028 57.2933 59.8027Z" fill="#FBB603"/>
</svg>
