<svg width="11" height="10" viewBox="0 0 11 10" fill="none" xmlns="http://www.w3.org/2000/svg">
<path d="M9.86133 2.33105C10.291 2.00879 10.6777 1.62207 10.9785 1.1709C10.5918 1.34277 10.1406 1.47168 9.68945 1.51465C10.1621 1.23535 10.5059 0.805664 10.6777 0.268555C10.248 0.526367 9.75391 0.719727 9.25977 0.827148C8.83008 0.375977 8.25 0.118164 7.60547 0.118164C6.35938 0.118164 5.34961 1.12793 5.34961 2.37402C5.34961 2.5459 5.37109 2.71777 5.41406 2.88965C3.54492 2.78223 1.86914 1.87988 0.751953 0.526367C0.558594 0.848633 0.451172 1.23535 0.451172 1.66504C0.451172 2.43848 0.837891 3.12598 1.46094 3.53418C1.0957 3.5127 0.730469 3.42676 0.429688 3.25488V3.27637C0.429688 4.37207 1.20312 5.27441 2.23438 5.48926C2.0625 5.53223 1.84766 5.5752 1.6543 5.5752C1.50391 5.5752 1.375 5.55371 1.22461 5.53223C1.50391 6.43457 2.3418 7.0791 3.33008 7.10059C2.55664 7.70215 1.58984 8.06738 0.537109 8.06738C0.34375 8.06738 0.171875 8.0459 0 8.02441C0.988281 8.66895 2.16992 9.03418 3.45898 9.03418C7.60547 9.03418 9.86133 5.61816 9.86133 2.63184C9.86133 2.52441 9.86133 2.43848 9.86133 2.33105Z" fill="#225AA4"/>
</svg>
