<svg width="29" height="32" viewBox="0 0 29 32" fill="none" xmlns="http://www.w3.org/2000/svg">
<path d="M17.7001 0H11.3001C5.12409 0 0.100098 5.024 0.100098 11.2V16C0.100098 20.34 2.6001 24.272 6.50009 26.124V31.472C6.50009 31.936 7.08009 32.176 7.40809 31.848L12.0561 27.204H17.7001C23.8761 27.204 28.9001 22.18 28.9001 16V11.2C28.9001 5.024 23.8761 0 17.7001 0ZM21.8921 20.9924L20.2721 22.5764C18.5681 24.2444 14.1201 22.3404 10.2001 18.3364C6.28009 14.3284 4.56009 9.8404 6.18009 8.1724L7.80009 6.5884C8.39609 6.0044 9.40809 6.0164 10.0761 6.6124L12.4121 9.0004C13.2441 9.8524 12.8921 11.2804 11.7921 11.6084C11.0321 11.8524 10.5161 12.6884 10.7601 13.4484C11.1641 15.2244 13.4161 17.4444 15.0961 17.8844C15.8521 18.0604 16.7001 17.6484 16.9641 16.8924C17.3121 15.8004 18.7481 15.4764 19.5841 16.3324L21.9161 18.7164C22.5001 19.312 22.4921 20.3244 21.8921 20.9924ZM15.9561 7.6C15.7961 7.6 15.6361 7.608 15.4801 7.628C15.1881 7.66 14.9241 7.448 14.8921 7.156C14.8601 6.864 15.0721 6.6 15.3641 6.568C15.5601 6.544 15.7601 6.536 15.9561 6.536C18.8961 6.536 21.2881 8.928 21.2881 11.868C21.2881 12.064 21.2801 12.264 21.2561 12.46C21.2241 12.748 20.9561 12.964 20.6681 12.932C20.3801 12.9 20.1641 12.632 20.1961 12.344C20.2121 12.188 20.2241 12.028 20.2241 11.868C20.2241 9.516 18.3081 7.6 15.9561 7.6ZM19.1561 11.868C19.1561 12.16 18.9121 12.4 18.6201 12.4C18.3321 12.4 18.0881 12.16 18.0881 11.868C18.0881 10.692 17.1321 9.736 15.9561 9.736C15.6601 9.736 15.4201 9.496 15.4201 9.2C15.4201 8.908 15.6601 8.668 15.9561 8.668C17.7201 8.668 19.1561 10.104 19.1561 11.868ZM23.2241 13.592C23.1561 13.88 22.8481 14.06 22.5641 13.984C22.2881 13.908 22.1201 13.62 22.1841 13.344C22.3001 12.864 22.3561 12.368 22.3561 11.868C22.3561 8.34 19.4841 5.468 15.9561 5.468C15.7921 5.468 15.6241 5.472 15.4601 5.488C15.1681 5.508 14.9121 5.288 14.8881 4.996C14.8681 4.7 15.0881 4.444 15.3801 4.424C15.5721 4.408 15.7641 4.4 15.9561 4.4C20.0721 4.4 23.4241 7.752 23.4241 11.868C23.4241 12.448 23.3561 13.028 23.2241 13.592Z" fill="#665CAC"/>
</svg>
